<svg width="330" height="330" viewBox="0 0 330 330" fill="none" xmlns="http://www.w3.org/2000/svg">
<g filter="url(#filter0_d)">
<path d="M89.7288 196.677L233.187 209.037C230.932 235.215 207.882 254.608 181.705 252.352L85.6448 244.075L89.7288 196.677Z" fill="white"/>
</g>
<g filter="url(#filter1_d)">
<path d="M95.0571 134.862L238.516 147.223C236.26 173.4 213.211 192.793 187.033 190.537L90.9732 182.261L95.0571 134.862Z" fill="white"/>
</g>
<g filter="url(#filter2_d)">
<path d="M96.2933 120.437C98.5488 94.2591 121.598 74.8665 147.776 77.122L243.836 85.3987C241.58 111.576 218.531 130.969 192.353 128.713L96.2933 120.437Z" fill="white"/>
</g>
<g filter="url(#filter3_i)">
<path fill-rule="evenodd" clip-rule="evenodd" d="M90.9639 35.7677L259.487 50.2878C280.17 52.0698 295.492 70.2812 293.71 90.964L279.19 259.487C277.407 280.17 259.196 295.492 238.513 293.71L69.9904 279.189C49.3076 277.407 33.9856 259.196 35.7676 238.513L50.2877 69.9905C52.0698 49.3077 70.2811 33.9856 90.9639 35.7677ZM262.068 20.3282C299.297 23.5359 326.877 56.3163 323.669 93.5453L309.149 262.068C305.941 299.297 273.161 326.877 235.932 323.669L67.4091 309.149C30.18 305.941 2.60031 273.161 5.80801 235.932L20.3281 67.4091C23.5358 30.1801 56.3163 2.60035 93.5453 5.80805L262.068 20.3282Z" fill="white"/>
</g>
<defs>
<filter id="filter0_d" x="81.6448" y="196.677" width="155.542" height="67.7592" filterUnits="userSpaceOnUse" color-interpolation-filters="sRGB">
<feFlood flood-opacity="0" result="BackgroundImageFix"/>
<feColorMatrix in="SourceAlpha" type="matrix" values="0 0 0 0 0 0 0 0 0 0 0 0 0 0 0 0 0 0 127 0" result="hardAlpha"/>
<feOffset dy="4"/>
<feGaussianBlur stdDeviation="2"/>
<feComposite in2="hardAlpha" operator="out"/>
<feColorMatrix type="matrix" values="0 0 0 0 0.380392 0 0 0 0 0.00392157 0 0 0 0 0.368627 0 0 0 1 0"/>
<feBlend mode="normal" in2="BackgroundImageFix" result="effect1_dropShadow"/>
<feBlend mode="normal" in="SourceGraphic" in2="effect1_dropShadow" result="shape"/>
</filter>
<filter id="filter1_d" x="86.9731" y="134.862" width="155.542" height="67.7591" filterUnits="userSpaceOnUse" color-interpolation-filters="sRGB">
<feFlood flood-opacity="0" result="BackgroundImageFix"/>
<feColorMatrix in="SourceAlpha" type="matrix" values="0 0 0 0 0 0 0 0 0 0 0 0 0 0 0 0 0 0 127 0" result="hardAlpha"/>
<feOffset dy="4"/>
<feGaussianBlur stdDeviation="2"/>
<feComposite in2="hardAlpha" operator="out"/>
<feColorMatrix type="matrix" values="0 0 0 0 0.380392 0 0 0 0 0.00392157 0 0 0 0 0.368627 0 0 0 1 0"/>
<feBlend mode="normal" in2="BackgroundImageFix" result="effect1_dropShadow"/>
<feBlend mode="normal" in="SourceGraphic" in2="effect1_dropShadow" result="shape"/>
</filter>
<filter id="filter2_d" x="92.2932" y="73.0381" width="155.543" height="67.7591" filterUnits="userSpaceOnUse" color-interpolation-filters="sRGB">
<feFlood flood-opacity="0" result="BackgroundImageFix"/>
<feColorMatrix in="SourceAlpha" type="matrix" values="0 0 0 0 0 0 0 0 0 0 0 0 0 0 0 0 0 0 127 0" result="hardAlpha"/>
<feOffset dy="4"/>
<feGaussianBlur stdDeviation="2"/>
<feComposite in2="hardAlpha" operator="out"/>
<feColorMatrix type="matrix" values="0 0 0 0 0.380392 0 0 0 0 0.00392157 0 0 0 0 0.368627 0 0 0 1 0"/>
<feBlend mode="normal" in2="BackgroundImageFix" result="effect1_dropShadow"/>
<feBlend mode="normal" in="SourceGraphic" in2="effect1_dropShadow" result="shape"/>
</filter>
<filter id="filter3_i" x="0" y="0" width="329.477" height="333.477" filterUnits="userSpaceOnUse" color-interpolation-filters="sRGB">
<feFlood flood-opacity="0" result="BackgroundImageFix"/>
<feBlend mode="normal" in="SourceGraphic" in2="BackgroundImageFix" result="shape"/>
<feColorMatrix in="SourceAlpha" type="matrix" values="0 0 0 0 0 0 0 0 0 0 0 0 0 0 0 0 0 0 127 0" result="hardAlpha"/>
<feOffset dy="4"/>
<feGaussianBlur stdDeviation="2"/>
<feComposite in2="hardAlpha" operator="arithmetic" k2="-1" k3="1"/>
<feColorMatrix type="matrix" values="0 0 0 0 0.380392 0 0 0 0 0.00392157 0 0 0 0 0.368627 0 0 0 0.3 0"/>
<feBlend mode="normal" in2="shape" result="effect1_innerShadow"/>
</filter>
</defs>
</svg>
