<svg width="364" height="450" viewBox="0 0 364 450" fill="none" xmlns="http://www.w3.org/2000/svg">
<rect x="265.05" y="336.995" width="94.6606" height="107.276" fill="url(#paint0_linear)"/>
<rect x="135.68" y="310.176" width="94.6606" height="107.276" fill="url(#paint1_linear)"/>
<rect x="4.73291" y="341.728" width="94.6606" height="107.276" fill="url(#paint2_linear)"/>
<path style="mix-blend-mode:lighten" opacity="0.6" d="M182.802 331.347C279.371 331.347 357.656 257.39 357.656 166.159C357.656 74.9273 279.371 0.969727 182.802 0.969727C86.2328 0.969727 7.948 74.9273 7.948 166.159C7.948 257.39 86.2328 331.347 182.802 331.347Z" fill="url(#paint3_radial)"/>
<path d="M182.787 349.442C180.59 349.483 178.419 348.967 176.476 347.943L133.879 323.365C133.077 323.08 132.382 322.555 131.891 321.86C131.4 321.165 131.137 320.335 131.137 319.484C131.137 318.633 131.4 317.803 131.891 317.108C132.382 316.413 133.077 315.887 133.879 315.603L176.208 290.977C178.167 289.997 180.328 289.486 182.518 289.486C184.709 289.486 186.87 289.997 188.829 290.977L231.426 315.556C232.228 315.84 232.923 316.366 233.414 317.061C233.905 317.756 234.168 318.586 234.168 319.436C234.168 320.287 233.905 321.117 233.414 321.812C232.923 322.507 232.228 323.033 231.426 323.317L189.097 347.943C187.152 348.964 184.983 349.479 182.787 349.442ZM182.566 290.251C180.494 290.21 178.447 290.698 176.618 291.671L134.289 316.281C133.609 316.497 133.015 316.924 132.594 317.5C132.173 318.076 131.946 318.77 131.946 319.484C131.946 320.197 132.173 320.892 132.594 321.468C133.015 322.043 133.609 322.47 134.289 322.686L176.886 347.249C178.724 348.183 180.757 348.67 182.818 348.67C184.88 348.67 186.912 348.183 188.75 347.249L231.079 322.639C231.714 322.366 232.265 321.931 232.678 321.377C233.091 320.823 233.35 320.17 233.43 319.484C233.346 318.799 233.085 318.148 232.672 317.595C232.26 317.042 231.711 316.605 231.079 316.329L188.482 291.766C186.648 290.751 184.583 290.23 182.487 290.251H182.566Z" fill="#61015E"/>
<path d="M233.919 306.011V285.598L208.124 289.037L188.829 277.899C186.927 276.934 184.824 276.432 182.692 276.432C180.559 276.432 178.457 276.934 176.555 277.899L173.557 279.808L131.686 285.392V306.201C131.774 306.941 132.053 307.646 132.496 308.246C132.938 308.846 133.529 309.321 134.21 309.624L176.807 334.203C178.709 335.167 180.812 335.67 182.944 335.67C185.077 335.67 187.179 335.167 189.081 334.203L231.411 309.577C232.087 309.271 232.674 308.797 233.116 308.201C233.557 307.605 233.839 306.905 233.935 306.169L233.919 306.011Z" fill="url(#paint4_linear)"/>
<path d="M231.379 281.906L188.781 257.343C186.882 256.379 184.782 255.876 182.652 255.876C180.522 255.876 178.422 256.379 176.523 257.343L134.194 281.953C130.802 283.91 130.802 287.081 134.194 289.037L176.791 313.6C178.693 314.564 180.796 315.067 182.928 315.067C185.061 315.067 187.163 314.564 189.065 313.6L231.394 288.989C234.849 287.033 234.849 283.862 231.379 281.906Z" fill="url(#paint5_radial)"/>
<path d="M231.379 287.759L189.097 312.369C187.195 313.333 185.093 313.836 182.96 313.836C180.827 313.836 178.725 313.333 176.823 312.369L134.226 287.806C133.631 287.517 133.103 287.107 132.676 286.601C132.249 286.096 131.933 285.507 131.749 284.872C131.433 286.354 132.253 287.901 134.226 289.036L176.823 313.599C178.725 314.564 180.827 315.067 182.96 315.067C185.093 315.067 187.195 314.564 189.097 313.599L231.426 288.989C233.398 287.853 234.219 286.307 233.903 284.824C233.713 285.464 233.39 286.056 232.955 286.561C232.52 287.067 231.983 287.475 231.379 287.759Z" fill="white"/>
<path d="M194.761 319.058L192.757 320.21V317.891L194.761 316.723V319.058Z" fill="white"/>
<path d="M198.989 316.613L196.97 317.78V315.461L198.989 314.294V316.613Z" fill="white"/>
<path d="M203.202 314.183L201.182 315.351V313.016L203.202 311.864V314.183Z" fill="white"/>
<path d="M199.746 320.888L197.743 322.056V319.721L199.746 318.569V320.888Z" fill="white"/>
<path d="M203.47 318.743L201.45 319.91V317.591L203.47 316.423V318.743Z" fill="white"/>
<path d="M216.722 306.374L214.703 307.542V305.223L216.722 304.055V306.374Z" fill="white"/>
<path d="M228.334 299.685L226.315 300.837V298.518L228.334 297.35V299.685Z" fill="white"/>
<path d="M207.414 311.754L205.395 312.921V310.586L207.414 309.419V311.754Z" fill="white"/>
<path opacity="0.4" d="M180.388 303.219L151.753 286.702C150.586 286.023 150.743 284.856 152.084 284.067L180.073 267.913C180.761 267.532 181.528 267.316 182.314 267.283C183.1 267.25 183.883 267.401 184.6 267.723L213.235 284.256C214.403 284.935 214.261 286.102 212.92 286.891L184.932 303.045C184.241 303.429 183.47 303.644 182.681 303.675C181.891 303.705 181.106 303.549 180.388 303.219Z" fill="#2D012B"/>
<path d="M169.124 321.124L145.459 307.478C145.151 307.252 144.9 306.958 144.725 306.619C144.549 306.279 144.455 305.904 144.449 305.522V303.771C144.449 303.014 144.907 302.682 145.459 302.998L169.124 316.644C169.436 316.867 169.692 317.16 169.87 317.5C170.048 317.84 170.144 318.217 170.149 318.6V320.399C170.165 321.093 169.692 321.44 169.124 321.124Z" fill="white"/>
<path d="M233.919 267.723V247.325L208.124 250.764L188.829 239.611C186.927 238.646 184.824 238.144 182.692 238.144C180.559 238.144 178.457 238.646 176.555 239.611L173.557 241.52L131.686 247.104V267.881C131.774 268.621 132.053 269.326 132.496 269.926C132.938 270.526 133.529 271.001 134.21 271.304L176.807 295.883C178.709 296.848 180.812 297.35 182.944 297.35C185.077 297.35 187.179 296.848 189.081 295.883L231.411 271.273C232.089 270.966 232.677 270.49 233.119 269.89C233.561 269.291 233.842 268.588 233.935 267.85L233.919 267.723Z" fill="url(#paint6_linear)"/>
<path d="M231.379 243.634L188.781 219.055C186.882 218.091 184.782 217.588 182.652 217.588C180.522 217.588 178.422 218.091 176.523 219.055L134.194 243.681C130.802 245.621 130.802 248.792 134.194 250.749L176.791 275.327C178.693 276.292 180.796 276.795 182.928 276.795C185.061 276.795 187.163 276.292 189.065 275.327L231.394 250.701C234.849 248.761 234.849 245.59 231.379 243.634Z" fill="url(#paint7_radial)"/>
<path opacity="0.4" d="M211.184 245.117L186.383 230.792C185.276 230.23 184.052 229.937 182.81 229.937C181.568 229.937 180.344 230.23 179.236 230.792L154.577 245.148C154.149 245.296 153.777 245.573 153.513 245.942C153.25 246.312 153.108 246.754 153.108 247.207C153.108 247.66 153.25 248.103 153.513 248.472C153.777 248.841 154.149 249.118 154.577 249.266L179.3 263.606C180.407 264.169 181.631 264.462 182.873 264.462C184.115 264.462 185.339 264.169 186.446 263.606L211.106 249.25C211.543 249.115 211.926 248.845 212.202 248.479C212.477 248.113 212.63 247.67 212.638 247.212C212.647 246.754 212.511 246.305 212.25 245.929C211.989 245.553 211.616 245.269 211.184 245.117Z" fill="#2D012B"/>
<path d="M231.379 249.408L189.097 274.097C187.193 275.054 185.091 275.553 182.96 275.553C180.829 275.553 178.727 275.054 176.823 274.097L134.226 249.518C133.632 249.231 133.105 248.823 132.679 248.32C132.252 247.818 131.935 247.232 131.749 246.6C131.433 248.067 132.253 249.613 134.226 250.749L176.823 275.327C178.725 276.292 180.827 276.795 182.96 276.795C185.093 276.795 187.195 276.292 189.097 275.327L231.426 250.701C233.398 249.565 234.219 248.035 233.903 246.552C233.703 247.177 233.376 247.754 232.941 248.245C232.507 248.737 231.975 249.133 231.379 249.408Z" fill="white"/>
<path d="M194.761 280.77L192.757 281.938V279.603L194.761 278.451V280.77Z" fill="white"/>
<path d="M198.989 278.34L196.97 279.508V277.173L198.989 276.005V278.34Z" fill="white"/>
<path d="M203.202 275.911L201.182 277.063V274.744L203.202 273.576V275.911Z" fill="white"/>
<path d="M199.746 282.616L197.743 283.767V281.448L199.746 280.281V282.616Z" fill="white"/>
<path d="M203.47 280.47L201.45 281.638V279.303L203.47 278.135V280.47Z" fill="white"/>
<path d="M216.722 268.102L214.703 269.27V266.935L216.722 265.767V268.102Z" fill="white"/>
<path d="M228.334 261.397L226.315 262.565V260.23L228.334 259.062V261.397Z" fill="white"/>
<path d="M207.414 273.466L205.395 274.634V272.314L207.414 271.147V273.466Z" fill="white"/>
<path d="M233.919 229.451V209.037L208.124 212.477L188.829 201.339C186.927 200.374 184.824 199.872 182.692 199.872C180.559 199.872 178.457 200.374 176.555 201.339L173.557 203.248L131.686 208.832V229.609C131.777 230.348 132.057 231.052 132.499 231.651C132.941 232.251 133.531 232.727 134.21 233.032L176.807 257.595C178.709 258.56 180.812 259.063 182.944 259.063C185.077 259.063 187.179 258.56 189.081 257.595L231.411 232.985C232.089 232.678 232.677 232.202 233.119 231.603C233.561 231.003 233.842 230.301 233.935 229.562L233.919 229.451Z" fill="url(#paint8_linear)"/>
<path d="M231.379 205.345L188.781 180.767C186.88 179.81 184.781 179.311 182.652 179.311C180.523 179.311 178.424 179.81 176.523 180.767L134.225 205.393C130.833 207.349 130.833 210.52 134.225 212.476L176.823 237.039C178.725 238.004 180.827 238.506 182.96 238.506C185.092 238.506 187.195 238.004 189.097 237.039L231.426 212.429C234.85 210.473 234.85 207.302 231.379 205.345Z" fill="url(#paint9_radial)"/>
<path d="M231.379 205.345L188.781 180.767C186.88 179.81 184.781 179.311 182.652 179.311C180.523 179.311 178.424 179.81 176.523 180.767L134.225 205.393C130.833 207.349 130.833 210.52 134.225 212.476L176.823 237.039C178.725 238.004 180.827 238.506 182.96 238.506C185.092 238.506 187.195 238.004 189.097 237.039L231.426 212.429C234.85 210.473 234.85 207.302 231.379 205.345Z" fill="url(#paint10_radial)"/>
<path d="M214.987 206.544L186.794 190.264C185.534 189.626 184.143 189.294 182.731 189.294C181.32 189.294 179.928 189.626 178.669 190.264L150.618 206.576C148.362 207.87 148.362 209.968 150.618 211.309L178.811 227.589C180.07 228.227 181.462 228.559 182.873 228.559C184.285 228.559 185.676 228.227 186.936 227.589L214.987 211.277C217.227 209.968 217.227 207.838 214.987 206.544Z" fill="#61015E"/>
<path d="M231.379 211.183L189.097 235.809C187.195 236.773 185.093 237.276 182.96 237.276C180.827 237.276 178.725 236.773 176.823 235.809L134.226 211.23C133.632 210.943 133.105 210.535 132.679 210.032C132.252 209.53 131.935 208.944 131.749 208.311C131.433 209.794 132.253 211.34 134.226 212.476L176.823 237.039C178.725 238.004 180.827 238.507 182.96 238.507C185.093 238.507 187.195 238.004 189.097 237.039L231.426 212.429C233.398 211.293 234.219 209.747 233.903 208.264C233.711 208.901 233.387 209.489 232.952 209.992C232.517 210.495 231.981 210.901 231.379 211.183Z" fill="white"/>
<path d="M194.761 242.498L192.757 243.65V241.331L194.761 240.163V242.498Z" fill="white"/>
<path d="M198.989 240.053L196.97 241.22V238.901L198.989 237.733V240.053Z" fill="white"/>
<path d="M203.202 237.623L201.182 238.791V236.456L203.202 235.304V237.623Z" fill="white"/>
<path d="M199.746 244.328L197.743 245.495V243.16L199.746 242.009V244.328Z" fill="white"/>
<path d="M203.47 242.182L201.45 243.35V241.015L203.47 239.863V242.182Z" fill="white"/>
<path d="M216.722 229.814L214.703 230.982V228.647L216.722 227.495V229.814Z" fill="white"/>
<path d="M228.334 223.109L226.315 224.277V221.942L228.334 220.79V223.109Z" fill="white"/>
<path d="M207.414 235.194L205.395 236.346V234.026L207.414 232.859V235.194Z" fill="white"/>
<path d="M233.919 191.889V171.475L208.124 174.914L188.829 163.776C186.927 162.812 184.824 162.309 182.692 162.309C180.559 162.309 178.457 162.812 176.555 163.776L173.557 165.685L131.686 171.27V192.047C131.774 192.787 132.053 193.492 132.496 194.092C132.938 194.692 133.529 195.167 134.21 195.47L176.807 220.049C178.711 221.006 180.813 221.505 182.944 221.505C185.076 221.505 187.177 221.006 189.081 220.049L231.411 195.423C232.089 195.116 232.677 194.64 233.119 194.04C233.561 193.441 233.842 192.738 233.935 191.999L233.919 191.889Z" fill="url(#paint11_linear)"/>
<path d="M231.379 167.783L188.781 143.22C186.882 142.256 184.782 141.753 182.652 141.753C180.522 141.753 178.422 142.256 176.523 143.22L134.194 167.831C130.802 169.787 130.802 172.958 134.194 174.914L176.791 199.477C178.693 200.442 180.796 200.944 182.928 200.944C185.061 200.944 187.163 200.442 189.065 199.477L231.394 174.867C234.849 172.911 234.849 169.74 231.379 167.783Z" fill="url(#paint12_radial)"/>
<path d="M211.185 169.266L186.384 154.958C185.277 154.395 184.052 154.102 182.81 154.102C181.568 154.102 180.344 154.395 179.237 154.958L154.578 169.298C152.606 170.434 152.606 172.28 154.578 173.431L179.379 187.74C180.486 188.303 181.71 188.596 182.952 188.596C184.194 188.596 185.418 188.303 186.526 187.74L211.185 173.4C213.078 172.264 213.078 170.418 211.185 169.266Z" fill="#61015E"/>
<path d="M231.379 173.683L189.097 198.246C187.195 199.211 185.093 199.714 182.96 199.714C180.827 199.714 178.725 199.211 176.823 198.246L134.226 173.668C133.632 173.38 133.105 172.972 132.679 172.47C132.252 171.967 131.935 171.381 131.749 170.749C131.433 172.232 132.253 173.778 134.226 174.914L176.823 199.477C178.725 200.441 180.827 200.944 182.96 200.944C185.093 200.944 187.195 200.441 189.097 199.477L231.426 174.866C233.398 173.731 234.219 172.185 233.903 170.702C233.719 171.35 233.398 171.951 232.963 172.465C232.528 172.979 231.988 173.395 231.379 173.683Z" fill="white"/>
<path d="M194.761 204.936L192.757 206.087V203.768L194.761 202.601V204.936Z" fill="white"/>
<path d="M198.989 202.491L196.97 203.658V201.339L198.989 200.171V202.491Z" fill="white"/>
<path d="M203.202 200.061L201.182 201.228V198.893L203.202 197.742V200.061Z" fill="white"/>
<path d="M199.746 206.765L197.743 207.933V205.598L199.746 204.446V206.765Z" fill="white"/>
<path d="M203.47 204.62L201.45 205.787V203.468L203.47 202.301V204.62Z" fill="white"/>
<path d="M216.722 192.252L214.703 193.419V191.1L216.722 189.933V192.252Z" fill="white"/>
<path d="M228.334 185.547L226.315 186.715V184.395L228.334 183.228V185.547Z" fill="white"/>
<path d="M207.414 197.631L205.395 198.799V196.464L207.414 195.296V197.631Z" fill="white"/>
<path d="M233.919 153.601V133.203L208.124 136.642L188.829 125.488C186.927 124.524 184.824 124.021 182.692 124.021C180.559 124.021 178.457 124.524 176.555 125.488L173.557 127.397L131.686 132.982V153.759C131.774 154.499 132.053 155.203 132.496 155.804C132.938 156.404 133.529 156.879 134.21 157.182L176.807 181.761C178.709 182.725 180.812 183.228 182.944 183.228C185.077 183.228 187.179 182.725 189.081 181.761L231.411 157.135C232.089 156.831 232.677 156.358 233.119 155.762C233.561 155.165 233.842 154.464 233.935 153.727L233.919 153.601Z" fill="url(#paint13_linear)"/>
<path d="M231.379 129.511L188.781 104.932C186.882 103.968 184.782 103.465 182.652 103.465C180.522 103.465 178.422 103.968 176.523 104.932L134.225 129.511C130.833 131.467 130.833 134.638 134.225 136.595L176.823 161.173C178.725 162.138 180.827 162.641 182.96 162.641C185.092 162.641 187.195 162.138 189.097 161.173L231.426 136.547C234.85 134.623 234.85 131.452 231.379 129.511Z" fill="url(#paint14_radial)"/>
<path d="M231.379 129.511L188.781 104.932C186.882 103.968 184.782 103.465 182.652 103.465C180.522 103.465 178.422 103.968 176.523 104.932L134.225 129.511C130.833 131.467 130.833 134.638 134.225 136.595L176.823 161.173C178.725 162.138 180.827 162.641 182.96 162.641C185.092 162.641 187.195 162.138 189.097 161.173L231.426 136.547C234.85 134.623 234.85 131.452 231.379 129.511Z" fill="url(#paint15_radial)"/>
<path d="M182.881 153.175C181.367 153.204 179.873 152.839 178.542 152.118L150.333 135.837C149.783 135.586 149.311 135.191 148.967 134.694C148.623 134.197 148.419 133.617 148.377 133.014C148.422 132.411 148.627 131.832 148.971 131.336C149.315 130.839 149.785 130.444 150.333 130.19L178.384 113.877C179.726 113.186 181.214 112.825 182.723 112.825C184.232 112.825 185.72 113.186 187.062 113.877L215.27 130.158C215.845 130.376 216.34 130.764 216.689 131.27C217.038 131.775 217.225 132.375 217.225 132.99C217.225 133.604 217.038 134.204 216.689 134.71C216.34 135.216 215.845 135.604 215.27 135.822L187.219 152.118C185.889 152.839 184.394 153.204 182.881 153.175ZM182.786 114.004C181.468 113.977 180.165 114.286 179 114.903L150.949 131.215C150.54 131.329 150.18 131.573 149.924 131.911C149.667 132.248 149.528 132.661 149.528 133.085C149.528 133.509 149.667 133.921 149.924 134.258C150.18 134.596 150.54 134.84 150.949 134.954L179.157 151.235C180.332 151.826 181.629 152.133 182.944 152.133C184.259 152.133 185.556 151.826 186.73 151.235L214.781 134.922C215.19 134.809 215.55 134.565 215.806 134.227C216.063 133.889 216.202 133.477 216.202 133.053C216.202 132.629 216.063 132.217 215.806 131.879C215.55 131.541 215.19 131.297 214.781 131.184L186.509 114.903C185.363 114.297 184.083 113.988 182.786 114.004Z" fill="#61015E"/>
<path d="M231.379 135.348L189.097 159.959C187.195 160.923 185.093 161.426 182.96 161.426C180.827 161.426 178.725 160.923 176.823 159.959L134.226 135.396C133.632 135.108 133.105 134.7 132.679 134.198C132.252 133.695 131.935 133.109 131.749 132.477C131.433 133.944 132.253 135.49 134.226 136.626L176.823 161.205C178.725 162.169 180.827 162.672 182.96 162.672C185.093 162.672 187.195 162.169 189.097 161.205L231.426 136.579C233.398 135.443 234.219 133.913 233.903 132.43C233.711 133.066 233.387 133.655 232.952 134.158C232.517 134.661 231.981 135.066 231.379 135.348Z" fill="white"/>
<path d="M194.761 166.648L192.757 167.815V165.48L194.761 164.329V166.648Z" fill="white"/>
<path d="M198.989 164.218L196.97 165.37V163.051L198.989 161.883V164.218Z" fill="white"/>
<path d="M203.202 161.773L201.182 162.94V160.621L203.202 159.454V161.773Z" fill="white"/>
<path d="M199.746 168.477L197.743 169.645V167.326L199.746 166.158V168.477Z" fill="white"/>
<path d="M203.47 166.348L201.45 167.499V165.18L203.47 164.013V166.348Z" fill="white"/>
<path d="M216.722 153.979L214.703 155.147V152.812L216.722 151.645V153.979Z" fill="white"/>
<path d="M228.334 147.275L226.315 148.442V146.107L228.334 144.94V147.275Z" fill="white"/>
<path d="M207.414 159.344L205.395 160.511V158.176L207.414 157.024V159.344Z" fill="white"/>
<path d="M312.156 385.08C309.952 385.1 307.78 384.557 305.845 383.502L263.248 358.923C262.446 358.639 261.752 358.113 261.261 357.418C260.77 356.723 260.506 355.893 260.506 355.043C260.506 354.192 260.77 353.362 261.261 352.667C261.752 351.972 262.446 351.446 263.248 351.162L305.64 326.709C307.597 325.719 309.758 325.204 311.951 325.204C314.143 325.204 316.305 325.719 318.262 326.709L360.859 351.272C361.659 351.56 362.351 352.088 362.84 352.784C363.329 353.48 363.592 354.31 363.592 355.161C363.592 356.011 363.329 356.841 362.84 357.537C362.351 358.233 361.659 358.761 360.859 359.05L318.467 383.613C316.521 384.628 314.35 385.133 312.156 385.08ZM311.935 325.873C309.869 325.833 307.827 326.322 306.003 327.293L263.69 351.95C263.062 352.231 262.517 352.668 262.108 353.221C261.698 353.774 261.439 354.423 261.355 355.106C261.435 355.79 261.692 356.441 262.102 356.994C262.512 357.548 263.059 357.985 263.69 358.261L306.287 382.84C308.129 383.769 310.164 384.253 312.227 384.253C314.29 384.253 316.325 383.769 318.167 382.84L360.464 358.261C361.147 358.049 361.743 357.625 362.167 357.05C362.591 356.476 362.819 355.78 362.819 355.066C362.819 354.352 362.591 353.657 362.167 353.082C361.743 352.507 361.147 352.083 360.464 351.872L317.867 327.293C316.049 326.342 314.018 325.869 311.967 325.92L311.935 325.873Z" fill="#61015E"/>
<path d="M363.415 341.681V321.283L337.635 324.722L318.325 313.568C316.425 312.604 314.325 312.101 312.195 312.101C310.065 312.101 307.965 312.604 306.066 313.568L303.053 315.477L261.181 321.062V341.838C261.274 342.577 261.555 343.28 261.997 343.879C262.439 344.479 263.027 344.955 263.705 345.262L306.303 369.841C308.202 370.805 310.302 371.308 312.432 371.308C314.562 371.308 316.662 370.805 318.561 369.841L360.906 345.214C361.581 344.906 362.166 344.432 362.608 343.836C363.049 343.24 363.332 342.542 363.43 341.807L363.415 341.681Z" fill="url(#paint16_linear)"/>
<path d="M360.875 317.591L318.277 293.012C316.378 292.048 314.278 291.545 312.148 291.545C310.018 291.545 307.918 292.048 306.019 293.012L263.674 317.622C260.282 319.579 260.282 322.749 263.674 324.706L306.271 349.284C308.17 350.249 310.27 350.752 312.4 350.752C314.531 350.752 316.631 350.249 318.53 349.284L360.875 324.658C364.219 322.702 364.219 319.531 360.875 317.591Z" fill="url(#paint17_radial)"/>
<path d="M360.875 323.428L318.467 348.038C316.568 349.003 314.468 349.505 312.338 349.505C310.207 349.505 308.107 349.003 306.208 348.038L263.611 323.475C263.021 323.186 262.497 322.778 262.073 322.275C261.649 321.773 261.335 321.188 261.15 320.557C260.834 322.024 261.639 323.57 263.611 324.706L306.208 349.285C308.107 350.249 310.207 350.752 312.338 350.752C314.468 350.752 316.568 350.249 318.467 349.285L360.812 324.659C362.768 323.523 363.588 321.977 363.273 320.51C363.095 321.135 362.79 321.716 362.378 322.218C361.965 322.72 361.453 323.132 360.875 323.428Z" fill="white"/>
<path d="M324.257 354.727L322.238 355.895V353.56L324.257 352.392V354.727Z" fill="white"/>
<path d="M328.469 352.298L326.45 353.465V351.13L328.469 349.963V352.298Z" fill="white"/>
<path d="M332.681 349.868L330.678 351.02V348.701L332.681 347.533V349.868Z" fill="white"/>
<path d="M329.242 356.557L327.223 357.725V355.406L329.242 354.238V356.557Z" fill="white"/>
<path d="M332.95 354.427L330.93 355.579V353.26L332.95 352.092V354.427Z" fill="white"/>
<path d="M346.202 342.059L344.199 343.211V340.892L346.202 339.724V342.059Z" fill="white"/>
<path d="M357.814 335.354L355.81 336.522V334.187L357.814 333.02V335.354Z" fill="white"/>
<path d="M336.91 347.423L334.891 348.591V346.271L336.91 345.104V347.423Z" fill="white"/>
<path opacity="0.4" d="M309.884 338.904L281.249 322.371C280.082 321.693 280.223 320.525 281.565 319.752L309.553 303.598C310.241 303.208 311.011 302.988 311.802 302.955C312.592 302.922 313.378 303.077 314.096 303.408L342.731 319.941C343.899 320.604 343.741 321.787 342.4 322.56L314.428 338.715C313.737 339.096 312.966 339.311 312.178 339.344C311.389 339.377 310.604 339.226 309.884 338.904Z" fill="#2D012B"/>
<path d="M298.619 356.794L274.954 343.148C274.642 342.928 274.386 342.638 274.208 342.301C274.03 341.963 273.934 341.589 273.929 341.207V339.44C273.929 338.699 274.386 338.352 274.954 338.667L298.619 352.313C298.927 352.54 299.178 352.834 299.353 353.173C299.529 353.513 299.623 353.888 299.629 354.27V356.021C299.629 356.778 299.172 357.125 298.619 356.794Z" fill="white"/>
<path d="M363.415 303.393V282.994L337.635 286.434L318.309 275.28C316.41 274.316 314.31 273.813 312.18 273.813C310.049 273.813 307.949 274.316 306.05 275.28L303.037 277.205L261.165 282.789V303.566C261.257 304.307 261.537 305.013 261.979 305.615C262.421 306.217 263.01 306.695 263.69 307.005L306.287 331.568C308.186 332.533 310.286 333.035 312.416 333.035C314.546 333.035 316.646 332.533 318.545 331.568L360.89 306.958C361.567 306.648 362.154 306.172 362.595 305.573C363.037 304.974 363.319 304.272 363.415 303.535V303.393Z" fill="url(#paint18_linear)"/>
<path d="M360.875 279.382L318.277 254.803C316.378 253.839 314.278 253.336 312.148 253.336C310.018 253.336 307.918 253.839 306.019 254.803L263.705 279.382C260.313 281.338 260.313 284.509 263.705 286.465L306.303 311.028C308.202 311.993 310.302 312.495 312.432 312.495C314.562 312.495 316.662 311.993 318.561 311.028L360.906 286.418C364.219 284.43 364.219 281.259 360.875 279.382Z" fill="url(#paint19_radial)"/>
<path opacity="0.4" d="M340.554 280.786L315.753 266.477C314.646 265.915 313.422 265.622 312.18 265.622C310.938 265.622 309.713 265.915 308.606 266.477L283.931 280.818C283.503 280.965 283.131 281.243 282.867 281.612C282.604 281.981 282.462 282.423 282.462 282.876C282.462 283.33 282.604 283.772 282.867 284.141C283.131 284.51 283.503 284.788 283.931 284.935L308.732 299.26C309.84 299.822 311.064 300.115 312.306 300.115C313.548 300.115 314.772 299.822 315.879 299.26L340.554 284.919C342.574 283.768 342.574 281.922 340.554 280.786Z" fill="#2D012B"/>
<path d="M360.875 285.14L318.467 309.766C316.568 310.73 314.468 311.233 312.338 311.233C310.207 311.233 308.107 310.73 306.208 309.766L263.611 285.187C263.021 284.898 262.497 284.489 262.073 283.987C261.649 283.484 261.335 282.899 261.15 282.269C260.834 283.751 261.639 285.297 263.611 286.433L306.208 310.996C308.107 311.961 310.207 312.463 312.338 312.463C314.468 312.463 316.568 311.961 318.467 310.996L360.812 286.386C362.768 285.25 363.588 283.704 363.273 282.221C363.095 282.846 362.79 283.428 362.378 283.93C361.965 284.432 361.453 284.844 360.875 285.14Z" fill="white"/>
<path d="M324.257 316.439L322.238 317.607V315.288L324.257 314.12V316.439Z" fill="white"/>
<path d="M328.469 314.01L326.45 315.177V312.842L328.469 311.691V314.01Z" fill="white"/>
<path d="M332.681 311.58L330.678 312.748V310.413L332.681 309.245V311.58Z" fill="white"/>
<path d="M329.242 318.285L327.223 319.453V317.118L329.242 315.95V318.285Z" fill="white"/>
<path d="M332.95 316.14L330.93 317.307V314.972L332.95 313.805V316.14Z" fill="white"/>
<path d="M346.202 303.771L344.199 304.939V302.604L346.202 301.452V303.771Z" fill="white"/>
<path d="M357.814 297.067L355.81 298.234V295.899L357.814 294.747V297.067Z" fill="white"/>
<path d="M336.91 309.151L334.891 310.303V307.983L336.91 306.816V309.151Z" fill="white"/>
<path d="M363.415 265.184V244.675L337.635 248.13L318.325 236.976C316.425 236.012 314.325 235.509 312.195 235.509C310.065 235.509 307.965 236.012 306.066 236.976L303.053 238.885L261.181 244.47V265.247C261.274 265.985 261.555 266.688 261.997 267.288C262.439 267.887 263.027 268.363 263.705 268.67L306.303 293.249C308.202 294.213 310.302 294.716 312.432 294.716C314.562 294.716 316.662 294.213 318.561 293.249L360.906 268.623C361.581 268.314 362.166 267.84 362.608 267.244C363.049 266.648 363.332 265.95 363.43 265.215L363.415 265.184Z" fill="url(#paint20_linear)"/>
<path d="M360.875 241.015L318.277 216.452C316.378 215.488 314.278 214.985 312.148 214.985C310.018 214.985 307.918 215.488 306.019 216.452L263.674 241.062C260.282 243.018 260.282 246.189 263.674 248.146L306.271 272.724C308.17 273.689 310.27 274.191 312.4 274.191C314.531 274.191 316.631 273.689 318.53 272.724L360.875 248.098C364.219 246.142 364.219 242.971 360.875 241.015Z" fill="url(#paint21_radial)"/>
<path d="M360.875 241.015L318.277 216.452C316.378 215.488 314.278 214.985 312.148 214.985C310.018 214.985 307.918 215.488 306.019 216.452L263.674 241.062C260.282 243.018 260.282 246.189 263.674 248.146L306.271 272.724C308.17 273.689 310.27 274.191 312.4 274.191C314.531 274.191 316.631 273.689 318.53 272.724L360.875 248.098C364.219 246.142 364.219 242.971 360.875 241.015Z" fill="url(#paint22_radial)"/>
<path d="M344.483 242.229L316.274 225.949C315.017 225.304 313.624 224.967 312.211 224.967C310.798 224.967 309.406 225.304 308.149 225.949L280.098 242.245C277.857 243.555 277.857 245.653 280.098 246.978L308.307 263.259C309.566 263.896 310.958 264.229 312.369 264.229C313.781 264.229 315.172 263.896 316.432 263.259L344.483 246.946C346.723 245.621 346.723 243.523 344.483 242.229Z" fill="#61015E"/>
<path d="M360.875 246.868L318.467 271.494C316.568 272.458 314.468 272.961 312.338 272.961C310.207 272.961 308.107 272.458 306.208 271.494L263.611 246.931C263.019 246.64 262.494 246.229 262.07 245.724C261.646 245.218 261.333 244.63 261.15 243.996C260.834 245.479 261.639 247.025 263.611 248.161L306.208 272.74C308.109 273.701 310.208 274.201 312.338 274.201C314.467 274.201 316.567 273.701 318.467 272.74L360.812 248.114C362.768 246.978 363.588 245.432 363.273 243.965C363.093 244.587 362.787 245.166 362.375 245.665C361.962 246.164 361.452 246.574 360.875 246.868Z" fill="white"/>
<path d="M324.257 278.167L322.238 279.334V277L324.257 275.832V278.167Z" fill="white"/>
<path d="M328.469 275.737L326.45 276.889V274.57L328.469 273.402V275.737Z" fill="white"/>
<path d="M332.681 273.292L330.678 274.46V272.141L332.681 270.973V273.292Z" fill="white"/>
<path d="M329.242 279.997L327.223 281.164V278.845L329.242 277.678V279.997Z" fill="white"/>
<path d="M332.95 277.851L330.93 279.019V276.7L332.95 275.532V277.851Z" fill="white"/>
<path d="M346.202 265.483L344.199 266.651V264.332L346.202 263.164V265.483Z" fill="white"/>
<path d="M357.814 258.779L355.81 259.946V257.627L357.814 256.459V258.779Z" fill="white"/>
<path d="M336.91 270.863L334.891 272.031V269.696L336.91 268.544V270.863Z" fill="white"/>
<path d="M363.415 227.558V207.16L337.635 210.599L318.325 199.446C316.425 198.481 314.325 197.979 312.195 197.979C310.065 197.979 307.965 198.481 306.066 199.446L303.053 201.354L261.181 206.939V227.716C261.274 228.455 261.555 229.157 261.997 229.757C262.439 230.356 263.027 230.832 263.705 231.139L306.303 255.718C308.202 256.682 310.302 257.185 312.432 257.185C314.562 257.185 316.662 256.682 318.561 255.718L360.906 231.092C361.581 230.784 362.166 230.309 362.608 229.714C363.049 229.118 363.332 228.419 363.43 227.684L363.415 227.558Z" fill="url(#paint23_linear)"/>
<path d="M360.875 203.453L318.277 178.89C316.378 177.926 314.278 177.423 312.148 177.423C310.018 177.423 307.918 177.926 306.019 178.89L263.674 203.5C260.282 205.456 260.282 208.627 263.674 210.584L306.271 235.162C308.17 236.127 310.27 236.629 312.4 236.629C314.531 236.629 316.631 236.127 318.53 235.162L360.875 210.536C364.219 208.58 364.219 205.409 360.875 203.453Z" fill="url(#paint24_radial)"/>
<path d="M340.554 204.951L315.753 190.627C314.646 190.064 313.422 189.771 312.18 189.771C310.938 189.771 309.714 190.064 308.606 190.627L283.931 204.967C281.959 206.119 281.959 207.964 283.931 209.1L308.733 223.409C309.84 223.971 311.064 224.265 312.306 224.265C313.548 224.265 314.772 223.971 315.879 223.409L340.554 209.069C340.983 208.921 341.355 208.644 341.619 208.275C341.882 207.905 342.024 207.463 342.024 207.01C342.024 206.557 341.882 206.114 341.619 205.745C341.355 205.376 340.983 205.099 340.554 204.951Z" fill="#61015E"/>
<path d="M360.875 209.305L318.467 233.916C316.568 234.88 314.468 235.383 312.338 235.383C310.207 235.383 308.107 234.88 306.208 233.916L263.611 209.353C263.021 209.064 262.497 208.655 262.073 208.152C261.649 207.65 261.335 207.065 261.15 206.434C260.834 207.901 261.639 209.447 263.611 210.583L306.208 235.162C308.107 236.126 310.207 236.629 312.338 236.629C314.468 236.629 316.568 236.126 318.467 235.162L360.812 210.536C362.768 209.4 363.588 207.854 363.273 206.387C363.095 207.012 362.79 207.593 362.378 208.096C361.965 208.598 361.453 209.009 360.875 209.305Z" fill="white"/>
<path d="M324.257 240.605L322.238 241.772V239.437L324.257 238.27V240.605Z" fill="white"/>
<path d="M328.469 238.175L326.45 239.327V237.008L328.469 235.84V238.175Z" fill="white"/>
<path d="M332.681 235.73L330.678 236.898V234.579L332.681 233.411V235.73Z" fill="white"/>
<path d="M329.242 242.435L327.223 243.602V241.283L329.242 240.116V242.435Z" fill="white"/>
<path d="M332.95 240.289L330.93 241.457V239.138L332.95 237.97V240.289Z" fill="white"/>
<path d="M346.202 227.937L344.199 229.089V226.77L346.202 225.602V227.937Z" fill="white"/>
<path d="M357.814 221.232L355.81 222.384V220.064L357.814 218.897V221.232Z" fill="white"/>
<path d="M336.91 233.301L334.891 234.468V232.133L336.91 230.981V233.301Z" fill="white"/>
<path d="M363.415 189.27V168.951L337.635 172.39L318.325 161.237C316.425 160.272 314.325 159.77 312.195 159.77C310.065 159.77 307.965 160.272 306.066 161.237L303.053 163.161L261.181 168.746V189.46C261.274 190.2 261.555 190.905 261.997 191.507C262.439 192.109 263.027 192.588 263.705 192.899L306.303 217.462C308.202 218.426 310.302 218.929 312.432 218.929C314.562 218.929 316.662 218.426 318.561 217.462L360.906 192.851C361.583 192.542 362.169 192.065 362.611 191.466C363.053 190.867 363.335 190.166 363.43 189.428L363.415 189.27Z" fill="url(#paint25_linear)"/>
<path d="M360.875 165.181L318.309 140.554C316.41 139.59 314.31 139.087 312.18 139.087C310.049 139.087 307.949 139.59 306.05 140.554L263.705 165.181C260.313 167.137 260.313 170.308 263.705 172.264L306.303 196.827C308.202 197.791 310.302 198.294 312.432 198.294C314.562 198.294 316.662 197.791 318.561 196.827L360.906 172.217C364.219 170.308 364.219 167.137 360.875 165.181Z" fill="url(#paint26_radial)"/>
<path d="M360.875 165.181L318.309 140.554C316.41 139.59 314.31 139.087 312.18 139.087C310.049 139.087 307.949 139.59 306.05 140.554L263.705 165.181C260.313 167.137 260.313 170.308 263.705 172.264L306.303 196.827C308.202 197.791 310.302 198.294 312.432 198.294C314.562 198.294 316.662 197.791 318.561 196.827L360.906 172.217C364.219 170.308 364.219 167.137 360.875 165.181Z" fill="url(#paint27_radial)"/>
<path d="M312.361 188.923C310.849 188.945 309.356 188.581 308.023 187.866L279.83 171.585C279.28 171.332 278.807 170.937 278.46 170.441C278.114 169.945 277.906 169.365 277.857 168.762C277.902 168.157 278.109 167.576 278.456 167.079C278.803 166.582 279.278 166.188 279.83 165.938L307.881 149.626C309.222 148.934 310.71 148.573 312.219 148.573C313.729 148.573 315.216 148.934 316.558 149.626L344.751 165.906C345.327 166.121 345.824 166.506 346.174 167.011C346.525 167.516 346.713 168.115 346.713 168.73C346.713 169.345 346.525 169.945 346.174 170.449C345.824 170.954 345.327 171.34 344.751 171.554L316.7 187.882C315.365 188.591 313.872 188.949 312.361 188.923ZM312.156 149.673C310.838 149.646 309.535 149.956 308.37 150.572L280.319 166.884C279.94 167.047 279.609 167.306 279.361 167.635C279.112 167.964 278.953 168.353 278.899 168.762C278.951 169.169 279.109 169.556 279.358 169.883C279.608 170.21 279.939 170.465 280.319 170.623L308.512 186.904C309.686 187.495 310.983 187.803 312.298 187.803C313.613 187.803 314.91 187.495 316.085 186.904L344.199 170.528C344.576 170.37 344.905 170.114 345.152 169.787C345.398 169.46 345.554 169.074 345.603 168.667C345.554 168.259 345.398 167.87 345.152 167.541C344.905 167.211 344.577 166.952 344.199 166.79L316.006 150.509C314.816 149.904 313.49 149.616 312.156 149.673Z" fill="#61015E"/>
<path d="M360.875 171.017L318.467 195.643C316.568 196.608 314.468 197.11 312.338 197.11C310.207 197.11 308.107 196.608 306.208 195.643L263.611 171.064C263.021 170.776 262.497 170.367 262.073 169.864C261.649 169.362 261.335 168.777 261.15 168.146C260.834 169.629 261.639 171.175 263.611 172.311L306.208 196.874C308.107 197.838 310.207 198.341 312.338 198.341C314.468 198.341 316.568 197.838 318.467 196.874L360.812 172.263C362.768 171.128 363.588 169.582 363.273 168.099C363.095 168.724 362.79 169.305 362.378 169.807C361.965 170.31 361.453 170.721 360.875 171.017Z" fill="white"/>
<path d="M324.257 202.317L322.238 203.484V201.165L324.257 199.998V202.317Z" fill="white"/>
<path d="M328.469 199.888L326.45 201.055V198.72L328.469 197.568V199.888Z" fill="white"/>
<path d="M332.681 197.458L330.678 198.625V196.291L332.681 195.123V197.458Z" fill="white"/>
<path d="M329.242 204.163L327.223 205.33V202.995L329.242 201.828V204.163Z" fill="white"/>
<path d="M332.95 202.017L330.93 203.184V200.849L332.95 199.698V202.017Z" fill="white"/>
<path d="M346.202 189.649L344.199 190.816V188.481L346.202 187.33V189.649Z" fill="white"/>
<path d="M357.814 182.944L355.81 184.112V181.777L357.814 180.625V182.944Z" fill="white"/>
<path d="M336.91 195.028L334.891 196.18V193.861L336.91 192.693V195.028Z" fill="white"/>
<path d="M51.6499 385.08C49.4463 385.1 47.274 384.557 45.3392 383.502L2.7419 358.923C1.93987 358.639 1.24561 358.113 0.754618 357.418C0.263622 356.723 0 355.893 0 355.043C0 354.192 0.263622 353.362 0.754618 352.667C1.24561 351.972 1.93987 351.446 2.7419 351.162L45.1025 326.709C47.0589 325.719 49.2207 325.204 51.4132 325.204C53.6058 325.204 55.7676 325.719 57.724 326.709L100.321 351.272C101.122 351.56 101.813 352.088 102.303 352.784C102.792 353.48 103.054 354.31 103.054 355.161C103.054 356.011 102.792 356.841 102.303 357.537C101.813 358.233 101.122 358.761 100.321 359.05L57.9922 383.613C56.0374 384.634 53.8544 385.139 51.6499 385.08ZM51.429 325.873C49.363 325.833 47.3211 326.322 45.497 327.293L3.16787 351.95C2.48796 352.167 1.89444 352.593 1.47323 353.169C1.05203 353.745 0.824991 354.44 0.824991 355.153C0.824991 355.866 1.05203 356.561 1.47323 357.137C1.89444 357.713 2.48796 358.139 3.16787 358.355L45.7652 382.934C47.6073 383.863 49.6418 384.347 51.7051 384.347C53.7684 384.347 55.8029 383.863 57.6451 382.934L99.9268 358.261C100.601 358.041 101.188 357.614 101.605 357.04C102.021 356.466 102.245 355.775 102.245 355.066C102.245 354.357 102.021 353.666 101.605 353.093C101.188 352.519 100.601 352.091 99.9268 351.872L57.3295 327.293C55.5111 326.342 53.4805 325.869 51.429 325.92V325.873Z" fill="#61015E"/>
<path d="M102.877 341.681V321.283L77.0822 324.722L57.7714 313.568C55.8722 312.604 53.7722 312.101 51.6421 312.101C49.5121 312.101 47.412 312.604 45.5128 313.568L42.4995 315.477L0.62793 321.062V341.838C0.720819 342.577 1.00166 343.28 1.4436 343.879C1.88554 344.479 2.47382 344.955 3.15221 345.262L45.7495 369.841C47.6487 370.805 49.7487 371.308 51.8788 371.308C54.0088 371.308 56.1089 370.805 58.0081 369.841L100.353 345.214C101.027 344.906 101.613 344.432 102.054 343.836C102.496 343.24 102.779 342.542 102.877 341.807V341.681Z" fill="url(#paint28_linear)"/>
<path d="M100.337 317.591L57.7397 293.012C55.8405 292.048 53.7405 291.545 51.6104 291.545C49.4804 291.545 47.3803 292.048 45.4811 293.012L3.13629 317.622C-0.255716 319.579 -0.255716 322.749 3.13629 324.706L45.7336 349.284C47.6328 350.249 49.7328 350.752 51.8628 350.752C53.9929 350.752 56.0929 350.249 57.9921 349.284L100.337 324.658C103.713 322.702 103.713 319.531 100.337 317.591Z" fill="url(#paint29_radial)"/>
<path d="M100.337 323.428L57.9921 348.038C56.0929 349.003 53.9929 349.505 51.8629 349.505C49.7328 349.505 47.6328 349.003 45.7336 348.038L3.16785 323.554C2.57742 323.265 2.05365 322.856 1.62991 322.354C1.20617 321.851 0.89174 321.266 0.706667 320.635C0.391132 322.103 1.19575 323.649 3.16785 324.785L45.7651 349.363C47.6643 350.328 49.7643 350.83 51.8944 350.83C54.0245 350.83 56.1245 350.328 58.0237 349.363L100.369 324.737C102.325 323.601 103.145 322.055 102.83 320.588C102.632 321.207 102.308 321.779 101.879 322.267C101.45 322.756 100.925 323.151 100.337 323.428Z" fill="white"/>
<path d="M63.7191 354.727L61.6997 355.895V353.56L63.7191 352.392V354.727Z" fill="white"/>
<path d="M67.9313 352.298L65.9119 353.465V351.13L67.9313 349.963V352.298Z" fill="white"/>
<path d="M72.144 349.868L70.1404 351.02V348.701L72.144 347.533V349.868Z" fill="white"/>
<path d="M68.7045 356.557L66.6851 357.725V355.406L68.7045 354.238V356.557Z" fill="white"/>
<path d="M72.4121 354.427L70.4084 355.579V353.26L72.4121 352.092V354.427Z" fill="white"/>
<path d="M85.6643 342.059L83.6606 343.211V340.892L85.6643 339.724V342.059Z" fill="white"/>
<path d="M97.2764 335.354L95.2727 336.522V334.187L97.2764 333.02V335.354Z" fill="white"/>
<path d="M76.3722 347.423L74.3528 348.591V346.271L76.3722 345.104V347.423Z" fill="white"/>
<path opacity="0.4" d="M49.3465 338.904L20.7116 322.371C19.5441 321.693 19.6861 320.525 21.0272 319.752L49.0152 303.598C49.7032 303.208 50.4741 302.988 51.2642 302.955C52.0542 302.922 52.8408 303.077 53.5589 303.408L82.1937 319.941C83.3612 320.604 83.2034 321.787 81.8624 322.56L53.8902 338.715C53.1992 339.096 52.4291 339.311 51.6406 339.344C50.8521 339.377 50.0668 339.226 49.3465 338.904Z" fill="#2D012B"/>
<path d="M38.0823 356.794L14.4171 343.148C14.105 342.928 13.8493 342.638 13.671 342.301C13.4928 341.963 13.397 341.589 13.3916 341.207V339.44C13.3916 338.699 13.8491 338.352 14.4171 338.667L38.0823 352.313C38.39 352.54 38.6412 352.834 38.8164 353.173C38.9916 353.513 39.0859 353.888 39.092 354.27V356.021C39.092 356.778 38.6344 357.125 38.0823 356.794Z" fill="white"/>
<path d="M102.877 303.393V282.994L77.0822 286.434L57.7714 275.28C55.8722 274.316 53.7722 273.813 51.6421 273.813C49.5121 273.813 47.412 274.316 45.5128 275.28L42.4995 277.205L0.62793 282.789V303.566C0.719727 304.307 0.999953 305.013 1.44186 305.615C1.88378 306.217 2.47262 306.695 3.15221 307.005L45.7495 331.568C47.6487 332.533 49.7487 333.035 51.8788 333.035C54.0088 333.035 56.1089 332.533 58.0081 331.568L100.353 306.958C101.03 306.648 101.616 306.172 102.058 305.573C102.499 304.974 102.781 304.272 102.877 303.535V303.393Z" fill="url(#paint30_linear)"/>
<path d="M100.337 279.382L57.7399 254.803C55.8407 253.839 53.7407 253.336 51.6106 253.336C49.4805 253.336 47.3805 253.839 45.4813 254.803L3.16803 279.382C-0.223978 281.338 -0.223978 284.509 3.16803 286.465L45.7653 311.028C47.6645 311.993 49.7645 312.495 51.8946 312.495C54.0247 312.495 56.1247 311.993 58.0239 311.028L100.369 286.418C103.713 284.43 103.713 281.259 100.337 279.382Z" fill="url(#paint31_radial)"/>
<path opacity="0.4" d="M80.064 280.786L55.2629 266.477C54.1557 265.915 52.9314 265.622 51.6894 265.622C50.4475 265.622 49.2232 265.915 48.116 266.477L23.4411 280.818C23.0123 280.965 22.6403 281.243 22.3769 281.612C22.1135 281.981 21.9719 282.423 21.9719 282.876C21.9719 283.33 22.1135 283.772 22.3769 284.141C22.6403 284.51 23.0123 284.788 23.4411 284.935L48.2422 299.26C49.3494 299.822 50.5738 300.115 51.8157 300.115C53.0576 300.115 54.2819 299.822 55.3891 299.26L80.064 284.919C82.0361 283.768 82.0361 281.922 80.064 280.786Z" fill="#2D012B"/>
<path d="M100.337 285.14L57.9919 309.766C56.0928 310.73 53.9927 311.233 51.8627 311.233C49.7326 311.233 47.6326 310.73 45.7334 309.766L3.13611 285.187C2.54568 284.898 2.02191 284.489 1.59817 283.987C1.17443 283.484 0.860002 282.899 0.674929 282.269C0.359394 283.751 1.16401 285.297 3.13611 286.433L45.7334 310.996C47.6326 311.961 49.7326 312.463 51.8627 312.463C53.9927 312.463 56.0928 311.961 57.9919 310.996L100.337 286.386C102.293 285.25 103.114 283.704 102.798 282.221C102.613 282.852 102.298 283.437 101.875 283.94C101.451 284.442 100.927 284.851 100.337 285.14Z" fill="white"/>
<path d="M63.7191 316.439L61.6997 317.607V315.288L63.7191 314.12V316.439Z" fill="white"/>
<path d="M67.9313 314.01L65.9119 315.177V312.842L67.9313 311.691V314.01Z" fill="white"/>
<path d="M72.144 311.58L70.1404 312.748V310.413L72.144 309.245V311.58Z" fill="white"/>
<path d="M68.7045 318.285L66.6851 319.453V317.118L68.7045 315.95V318.285Z" fill="white"/>
<path d="M72.4121 316.14L70.4084 317.307V314.972L72.4121 313.805V316.14Z" fill="white"/>
<path d="M85.6643 303.771L83.6606 304.939V302.604L85.6643 301.452V303.771Z" fill="white"/>
<path d="M97.2764 297.067L95.2727 298.234V295.899L97.2764 294.747V297.067Z" fill="white"/>
<path d="M76.3722 309.151L74.3528 310.303V307.983L76.3722 306.816V309.151Z" fill="white"/>
<path d="M102.877 265.183V244.675L77.0822 248.161L57.7714 237.008C55.8722 236.043 53.7722 235.541 51.6421 235.541C49.5121 235.541 47.412 236.043 45.5128 237.008L42.4995 238.917L0.62793 244.501V265.278C0.720819 266.017 1.00166 266.719 1.4436 267.319C1.88554 267.918 2.47382 268.394 3.15221 268.701L45.7495 293.28C47.6487 294.244 49.7487 294.747 51.8788 294.747C54.0088 294.747 56.1089 294.244 58.0081 293.28L100.353 268.654C101.027 268.346 101.613 267.871 102.054 267.276C102.496 266.68 102.779 265.981 102.877 265.246V265.183Z" fill="url(#paint32_linear)"/>
<path d="M100.337 241.015L57.7394 216.452C55.8402 215.488 53.7402 214.985 51.6102 214.985C49.4801 214.985 47.3801 215.488 45.4809 216.452L3.13604 241.062C-0.224415 243.097 -0.224414 246.253 3.16759 248.146L45.7649 272.724C47.6641 273.689 49.7641 274.191 51.8942 274.191C54.0242 274.191 56.1242 273.689 58.0234 272.724L100.368 248.098C103.713 246.142 103.713 242.971 100.337 241.015Z" fill="url(#paint33_radial)"/>
<path d="M100.337 241.015L57.7394 216.452C55.8402 215.488 53.7402 214.985 51.6102 214.985C49.4801 214.985 47.3801 215.488 45.4809 216.452L3.13604 241.062C-0.224415 243.097 -0.224414 246.253 3.16759 248.146L45.7649 272.724C47.6641 273.689 49.7641 274.191 51.8942 274.191C54.0242 274.191 56.1242 273.689 58.0234 272.724L100.368 248.098C103.713 246.142 103.713 242.971 100.337 241.015Z" fill="url(#paint34_radial)"/>
<path d="M83.9449 242.229L55.736 225.949C54.479 225.304 53.0864 224.967 51.6735 224.967C50.2606 224.967 48.868 225.304 47.611 225.949L19.5599 242.245C17.3196 243.555 17.3196 245.653 19.5599 246.978L47.7687 263.259C49.028 263.896 50.4197 264.229 51.8313 264.229C53.2428 264.229 54.6345 263.896 55.8938 263.259L83.9449 246.946C86.1852 245.621 86.1852 243.523 83.9449 242.229Z" fill="#61015E"/>
<path d="M100.337 246.868L57.9919 271.494C56.0928 272.458 53.9927 272.961 51.8627 272.961C49.7326 272.961 47.6326 272.458 45.7334 271.494L3.13611 246.931C2.54405 246.64 2.01927 246.229 1.59544 245.724C1.1716 245.218 0.858064 244.63 0.674929 243.996C0.359394 245.479 1.16401 247.025 3.13611 248.161L45.7334 272.74C47.6337 273.701 49.7333 274.201 51.8627 274.201C53.9921 274.201 56.0916 273.701 57.9919 272.74L100.337 248.114C102.293 246.978 103.114 245.432 102.798 243.965C102.611 244.593 102.296 245.175 101.872 245.674C101.448 246.174 100.926 246.58 100.337 246.868Z" fill="white"/>
<path d="M63.7191 278.167L61.6997 279.334V277L63.7191 275.832V278.167Z" fill="white"/>
<path d="M67.9313 275.737L65.9119 276.889V274.57L67.9313 273.402V275.737Z" fill="white"/>
<path d="M72.144 273.292L70.1404 274.46V272.141L72.144 270.973V273.292Z" fill="white"/>
<path d="M68.7045 279.997L66.6851 281.164V278.845L68.7045 277.678V279.997Z" fill="white"/>
<path d="M72.4121 277.851L70.4084 279.019V276.7L72.4121 275.532V277.851Z" fill="white"/>
<path d="M85.6643 265.483L83.6606 266.651V264.332L85.6643 263.164V265.483Z" fill="white"/>
<path d="M97.2764 258.779L95.2727 259.946V257.627L97.2764 256.459V258.779Z" fill="white"/>
<path d="M76.3722 270.863L74.3528 272.031V269.696L76.3722 268.544V270.863Z" fill="white"/>
<path d="M102.877 227.558V207.16L77.0822 210.599L57.7714 199.446C55.8722 198.481 53.7722 197.979 51.6421 197.979C49.5121 197.979 47.412 198.481 45.5128 199.446L42.4995 201.354L0.62793 206.939V227.716C0.720819 228.455 1.00166 229.157 1.4436 229.757C1.88554 230.356 2.47382 230.832 3.15221 231.139L45.7495 255.718C47.6487 256.682 49.7487 257.185 51.8788 257.185C54.0088 257.185 56.1089 256.682 58.0081 255.718L100.353 231.092C101.027 230.784 101.613 230.309 102.054 229.714C102.496 229.118 102.779 228.419 102.877 227.684V227.558Z" fill="url(#paint35_linear)"/>
<path d="M100.337 203.453L57.7399 178.89C55.8407 177.926 53.7407 177.423 51.6106 177.423C49.4805 177.423 47.3805 177.926 45.4813 178.89L3.16803 203.5C-0.223978 205.456 -0.223978 208.627 3.16803 210.584L45.7653 235.162C47.6645 236.127 49.7645 236.629 51.8946 236.629C54.0247 236.629 56.1247 236.127 58.0239 235.162L100.369 210.536C103.713 208.58 103.713 205.409 100.337 203.453Z" fill="url(#paint36_radial)"/>
<path d="M80.0638 204.951L55.2627 190.627C54.1556 190.064 52.9312 189.771 51.6893 189.771C50.4474 189.771 49.223 190.064 48.1159 190.627L23.441 204.967C21.4689 206.119 21.4689 207.964 23.441 209.1L48.2421 223.409C49.3492 223.971 50.5736 224.265 51.8155 224.265C53.0574 224.265 54.2818 223.971 55.389 223.409L80.0638 209.069C80.4926 208.921 80.8647 208.644 81.1281 208.275C81.3915 207.905 81.533 207.463 81.533 207.01C81.533 206.557 81.3915 206.114 81.1281 205.745C80.8647 205.376 80.4926 205.099 80.0638 204.951Z" fill="#61015E"/>
<path d="M100.337 209.305L57.9919 233.916C56.0928 234.88 53.9927 235.383 51.8627 235.383C49.7326 235.383 47.6326 234.88 45.7334 233.916L3.13611 209.353C2.54568 209.064 2.02191 208.655 1.59817 208.152C1.17443 207.65 0.860002 207.065 0.674929 206.434C0.359394 207.901 1.16401 209.447 3.13611 210.583L45.7334 235.162C47.6326 236.126 49.7326 236.629 51.8627 236.629C53.9927 236.629 56.0928 236.126 57.9919 235.162L100.337 210.536C102.293 209.4 103.114 207.854 102.798 206.387C102.613 207.017 102.298 207.603 101.875 208.105C101.451 208.608 100.927 209.016 100.337 209.305Z" fill="white"/>
<path d="M63.7191 240.605L61.6997 241.772V239.437L63.7191 238.27V240.605Z" fill="white"/>
<path d="M67.9313 238.175L65.9119 239.327V237.008L67.9313 235.84V238.175Z" fill="white"/>
<path d="M72.144 235.73L70.1404 236.898V234.579L72.144 233.411V235.73Z" fill="white"/>
<path d="M68.7045 242.435L66.6851 243.602V241.283L68.7045 240.116V242.435Z" fill="white"/>
<path d="M72.4121 240.289L70.4084 241.457V239.138L72.4121 237.97V240.289Z" fill="white"/>
<path d="M85.6643 227.937L83.6606 229.089V226.77L85.6643 225.602V227.937Z" fill="white"/>
<path d="M97.2764 221.232L95.2727 222.384V220.064L97.2764 218.897V221.232Z" fill="white"/>
<path d="M76.3722 233.301L74.3528 234.468V232.133L76.3722 230.981V233.301Z" fill="white"/>
<path d="M102.877 189.27V168.951L77.0822 172.311L57.7714 161.158C55.8722 160.193 53.7722 159.69 51.6421 159.69C49.5121 159.69 47.412 160.193 45.5128 161.158L42.4995 163.082L0.62793 168.667V189.459C0.72118 190.2 1.00197 190.905 1.44371 191.507C1.88545 192.108 2.47351 192.587 3.15221 192.898L45.7495 217.461C47.6487 218.426 49.7487 218.929 51.8788 218.929C54.0088 218.929 56.1089 218.426 58.0081 217.461L100.353 192.851C101.03 192.542 101.616 192.065 102.058 191.466C102.499 190.867 102.781 190.166 102.877 189.428V189.27Z" fill="url(#paint37_linear)"/>
<path d="M100.337 165.18L57.7714 140.554C55.8743 139.593 53.7771 139.091 51.65 139.091C49.523 139.091 47.4258 139.593 45.5287 140.554L3.16803 165.228C-0.223978 167.184 -0.223978 170.355 3.16803 172.311L45.7653 196.874C47.6645 197.839 49.7645 198.341 51.8946 198.341C54.0247 198.341 56.1247 197.839 58.0239 196.874L100.369 172.264C103.713 170.308 103.713 167.137 100.337 165.18Z" fill="url(#paint38_radial)"/>
<path d="M100.337 165.18L57.7714 140.554C55.8743 139.593 53.7771 139.091 51.65 139.091C49.523 139.091 47.4258 139.593 45.5287 140.554L3.16803 165.228C-0.223978 167.184 -0.223978 170.355 3.16803 172.311L45.7653 196.874C47.6645 197.839 49.7645 198.341 51.8946 198.341C54.0247 198.341 56.1247 197.839 58.0239 196.874L100.369 172.264C103.713 170.308 103.713 167.137 100.337 165.18Z" fill="url(#paint39_radial)"/>
<path d="M51.8392 188.923C50.3267 188.945 48.8336 188.581 47.5005 187.866L19.2917 171.585C18.7417 171.332 18.2692 170.937 17.9226 170.441C17.576 169.945 17.3678 169.365 17.3196 168.762C17.3646 168.157 17.5714 167.576 17.9184 167.079C18.2654 166.582 18.7398 166.188 19.2917 165.938L47.3428 149.626C48.6844 148.934 50.1719 148.573 51.6814 148.573C53.1908 148.573 54.6784 148.934 56.02 149.626L84.2131 165.906C84.7891 166.121 85.2858 166.506 85.6365 167.011C85.9872 167.516 86.1752 168.115 86.1752 168.73C86.1752 169.345 85.9872 169.945 85.6365 170.449C85.2858 170.954 84.7891 171.34 84.2131 171.554L56.162 187.882C54.8321 188.589 53.3449 188.947 51.8392 188.923ZM51.6972 149.673C50.3791 149.646 49.076 149.956 47.9107 150.572L19.8439 166.884C19.466 167.047 19.1374 167.306 18.891 167.635C18.6446 167.965 18.489 168.353 18.4397 168.762C18.4885 169.168 18.6442 169.555 18.8908 169.882C19.1374 170.209 19.4663 170.464 19.8439 170.623L48.0369 186.904C49.2116 187.495 50.5084 187.803 51.8234 187.803C53.1384 187.803 54.4351 187.495 55.6098 186.904L83.6609 170.528C84.0385 170.37 84.3673 170.114 84.614 169.787C84.8606 169.46 85.0162 169.074 85.065 168.667C85.0157 168.259 84.8601 167.87 84.6137 167.541C84.3673 167.211 84.0388 166.952 83.6609 166.79L55.4678 150.572C54.3025 149.956 52.9994 149.646 51.6814 149.673H51.6972Z" fill="#61015E"/>
<path d="M100.337 171.017L57.9919 195.643C56.0928 196.608 53.9927 197.11 51.8627 197.11C49.7326 197.11 47.6326 196.608 45.7334 195.643L3.13611 171.064C2.54568 170.776 2.02191 170.367 1.59817 169.864C1.17443 169.362 0.860002 168.777 0.674929 168.146C0.359394 169.629 1.16401 171.175 3.13611 172.311L45.7334 196.874C47.6326 197.838 49.7326 198.341 51.8627 198.341C53.9927 198.341 56.0928 197.838 57.9919 196.874L100.337 172.263C102.293 171.128 103.114 169.582 102.798 168.099C102.613 168.729 102.298 169.315 101.875 169.817C101.451 170.32 100.927 170.728 100.337 171.017Z" fill="white"/>
<path d="M63.7191 202.317L61.6997 203.484V201.165L63.7191 199.998V202.317Z" fill="white"/>
<path d="M67.9313 199.888L65.9119 201.055V198.72L67.9313 197.568V199.888Z" fill="white"/>
<path d="M72.144 197.458L70.1404 198.625V196.291L72.144 195.123V197.458Z" fill="white"/>
<path d="M68.7045 204.163L66.6851 205.33V202.995L68.7045 201.828V204.163Z" fill="white"/>
<path d="M72.4121 202.017L70.4084 203.184V200.849L72.4121 199.698V202.017Z" fill="white"/>
<path d="M85.6643 189.649L83.6606 190.816V188.481L85.6643 187.33V189.649Z" fill="white"/>
<path d="M97.2764 182.944L95.2727 184.112V181.777L97.2764 180.625V182.944Z" fill="white"/>
<path d="M76.3722 195.028L74.3528 196.18V193.861L76.3722 192.693V195.028Z" fill="white"/>
<defs>
<linearGradient id="paint0_linear" x1="312.38" y1="336.995" x2="312.38" y2="444.271" gradientUnits="userSpaceOnUse">
<stop stop-color="#61015E"/>
<stop offset="0.552083" stop-color="#61015E" stop-opacity="0.36"/>
<stop offset="1" stop-color="#61015E" stop-opacity="0"/>
</linearGradient>
<linearGradient id="paint1_linear" x1="183.01" y1="310.176" x2="183.01" y2="417.452" gradientUnits="userSpaceOnUse">
<stop stop-color="#61015E"/>
<stop offset="0.567708" stop-color="#61015E" stop-opacity="0.29"/>
<stop offset="1" stop-color="#61015E" stop-opacity="0"/>
</linearGradient>
<linearGradient id="paint2_linear" x1="52.0632" y1="341.728" x2="52.0632" y2="449.004" gradientUnits="userSpaceOnUse">
<stop stop-color="#61015E"/>
<stop offset="0.541667" stop-color="#61015E" stop-opacity="0.33"/>
<stop offset="1" stop-color="#61015E" stop-opacity="0"/>
</linearGradient>
<radialGradient id="paint3_radial" cx="0" cy="0" r="1" gradientUnits="userSpaceOnUse" gradientTransform="translate(182.802 165.608) scale(174.854 164.353)">
<stop stop-color="#9F19AB"/>
<stop offset="0.04" stop-color="#9F19AB"/>
<stop offset="0.19" stop-color="#61015E"/>
<stop offset="0.34" stop-color="#720E6F"/>
<stop offset="0.49" stop-color="#4B1030"/>
<stop offset="0.63" stop-color="#2B091B"/>
<stop offset="0.77" stop-color="#13040C"/>
<stop offset="0.89" stop-color="#050103"/>
<stop offset="1"/>
</radialGradient>
<linearGradient id="paint4_linear" x1="125.533" y1="306.027" x2="197.632" y2="306.027" gradientUnits="userSpaceOnUse">
<stop stop-color="#6D0B76"/>
<stop offset="0.13" stop-color="#6D0B76"/>
<stop offset="0.55" stop-color="#6D0B76"/>
<stop offset="0.85" stop-color="#9F19AB"/>
<stop offset="1" stop-color="#61015E"/>
</linearGradient>
<radialGradient id="paint5_radial" cx="0" cy="0" r="1" gradientUnits="userSpaceOnUse" gradientTransform="translate(112.753 251.963) scale(161.018 161.008)">
<stop stop-color="#D1B4E3"/>
<stop offset="0.14" stop-color="#D1B4E3"/>
<stop offset="0.4" stop-color="#9F19AB"/>
<stop offset="0.76" stop-color="#9F19AB"/>
<stop offset="1" stop-color="#61015E"/>
</radialGradient>
<linearGradient id="paint6_linear" x1="14416.9" y1="11347.1" x2="19089.7" y2="11347.1" gradientUnits="userSpaceOnUse">
<stop stop-color="#6D0B76"/>
<stop offset="0.13" stop-color="#9F19AB"/>
<stop offset="0.55" stop-color="#9F19AB"/>
<stop offset="0.85" stop-color="#61015E"/>
<stop offset="1" stop-color="#61015E"/>
</linearGradient>
<radialGradient id="paint7_radial" cx="0" cy="0" r="1" gradientUnits="userSpaceOnUse" gradientTransform="translate(13599.8 9297.53) scale(10444.2 6042.64)">
<stop stop-color="#9F19AB"/>
<stop offset="0.14" stop-color="#9F19AB"/>
<stop offset="0.4" stop-color="#9F19AB"/>
<stop offset="0.76" stop-color="#61015E"/>
<stop offset="1" stop-color="#61015E"/>
</radialGradient>
<linearGradient id="paint8_linear" x1="14416.9" y1="9869.34" x2="19089.7" y2="9869.34" gradientUnits="userSpaceOnUse">
<stop stop-color="#6D0B76"/>
<stop offset="0.13" stop-color="#6D0B76"/>
<stop offset="0.55" stop-color="#6D0B76"/>
<stop offset="0.85" stop-color="#6D0B76"/>
<stop offset="1" stop-color="#6D0B76"/>
</linearGradient>
<radialGradient id="paint9_radial" cx="0" cy="0" r="1" gradientUnits="userSpaceOnUse" gradientTransform="translate(13596.2 7820.84) scale(10441.4 6041.48)">
<stop stop-color="#01C8EF"/>
<stop offset="0.14" stop-color="#03BAE4"/>
<stop offset="0.4" stop-color="#0895C8"/>
<stop offset="0.76" stop-color="#115A9A"/>
<stop offset="1" stop-color="#172F78"/>
</radialGradient>
<radialGradient id="paint10_radial" cx="0" cy="0" r="1" gradientUnits="userSpaceOnUse" gradientTransform="translate(126.952 185.105) scale(110.706 110.699)">
<stop stop-color="#61015E"/>
<stop offset="1" stop-color="#9F19AB"/>
</radialGradient>
<linearGradient id="paint11_linear" x1="14416.9" y1="8423.05" x2="19089.7" y2="8423.05" gradientUnits="userSpaceOnUse">
<stop stop-color="#6D0B76"/>
<stop offset="0.13" stop-color="#9F19AB"/>
<stop offset="0.55" stop-color="#FF63CE"/>
<stop offset="0.85" stop-color="#61015E"/>
<stop offset="1" stop-color="#61015E"/>
</linearGradient>
<radialGradient id="paint12_radial" cx="0" cy="0" r="1" gradientUnits="userSpaceOnUse" gradientTransform="translate(13599.8 6373.38) scale(10444.2 6041.03)">
<stop stop-color="#61015E"/>
<stop offset="1" stop-color="#9F19AB"/>
</radialGradient>
<linearGradient id="paint13_linear" x1="14416.9" y1="6949.99" x2="19089.7" y2="6949.99" gradientUnits="userSpaceOnUse">
<stop stop-color="#6D0B76"/>
<stop offset="0.13" stop-color="#61015E"/>
<stop offset="0.55" stop-color="#9F19AB"/>
<stop offset="0.85" stop-color="#61015E"/>
<stop offset="1" stop-color="#61015E"/>
</linearGradient>
<radialGradient id="paint14_radial" cx="0" cy="0" r="1" gradientUnits="userSpaceOnUse" gradientTransform="translate(13596.2 4897.84) scale(10441.4 6039.42)">
<stop stop-color="#01C8EF"/>
<stop offset="0.14" stop-color="#03BAE4"/>
<stop offset="0.4" stop-color="#0895C8"/>
<stop offset="0.76" stop-color="#115A9A"/>
<stop offset="1" stop-color="#172F78"/>
</radialGradient>
<radialGradient id="paint15_radial" cx="0" cy="0" r="1" gradientUnits="userSpaceOnUse" gradientTransform="translate(14517 5261.77) scale(7178.85 4152.32)">
<stop stop-color="#61015E"/>
<stop offset="1" stop-color="#9F19AB"/>
</radialGradient>
<linearGradient id="paint16_linear" x1="22939" y1="14196" x2="27610.8" y2="14196" gradientUnits="userSpaceOnUse">
<stop stop-color="#6D0B76"/>
<stop offset="0.13" stop-color="#9F19AB"/>
<stop offset="0.55" stop-color="#FF63CE"/>
<stop offset="0.85" stop-color="#61015E"/>
<stop offset="1" stop-color="#61015E"/>
</linearGradient>
<radialGradient id="paint17_radial" cx="0" cy="0" r="1" gradientUnits="userSpaceOnUse" gradientTransform="translate(22110.6 12147.1) scale(10436 6042.63)">
<stop stop-color="#D1B4E3"/>
<stop offset="0.14" stop-color="#D1B4E3"/>
<stop offset="0.4" stop-color="#9F19AB"/>
<stop offset="0.76" stop-color="#9F19AB"/>
<stop offset="1" stop-color="#61015E"/>
</radialGradient>
<linearGradient id="paint18_linear" x1="22939" y1="12724.7" x2="27610.8" y2="12724.7" gradientUnits="userSpaceOnUse">
<stop stop-color="#6D0B76"/>
<stop offset="0.13" stop-color="#9F19AB"/>
<stop offset="0.55" stop-color="#9F19AB"/>
<stop offset="0.85" stop-color="#FF63CE"/>
<stop offset="1" stop-color="#61015E"/>
</linearGradient>
<radialGradient id="paint19_radial" cx="0" cy="0" r="1" gradientUnits="userSpaceOnUse" gradientTransform="translate(22104.7 10663.6) scale(10433.1 6037.79)">
<stop stop-color="#D1B4E3"/>
<stop offset="0.14" stop-color="#9F19AB"/>
<stop offset="0.4" stop-color="#9F19AB"/>
<stop offset="0.76" stop-color="#61015E"/>
<stop offset="1" stop-color="#61015E"/>
</radialGradient>
<linearGradient id="paint20_linear" x1="22939" y1="11246.2" x2="27610.8" y2="11246.2" gradientUnits="userSpaceOnUse">
<stop stop-color="#6D0B76"/>
<stop offset="0.13" stop-color="#9F19AB"/>
<stop offset="0.55" stop-color="#61015E"/>
<stop offset="0.85" stop-color="#61015E"/>
<stop offset="1" stop-color="#61015E"/>
</linearGradient>
<radialGradient id="paint21_radial" cx="0" cy="0" r="1" gradientUnits="userSpaceOnUse" gradientTransform="translate(22110.6 9196.63) scale(10436 6042.63)">
<stop stop-color="#01C8EF"/>
<stop offset="0.14" stop-color="#03BAE4"/>
<stop offset="0.4" stop-color="#0895C8"/>
<stop offset="0.76" stop-color="#115A9A"/>
<stop offset="1" stop-color="#172F78"/>
</radialGradient>
<radialGradient id="paint22_radial" cx="0" cy="0" r="1" gradientUnits="userSpaceOnUse" gradientTransform="translate(23031.9 9560.75) scale(7175.11 4154.53)">
<stop stop-color="#61015E"/>
<stop offset="1" stop-color="#9F19AB"/>
</radialGradient>
<linearGradient id="paint23_linear" x1="22939" y1="9798.92" x2="27610.8" y2="9798.92" gradientUnits="userSpaceOnUse">
<stop stop-color="#6D0B76"/>
<stop offset="0.13" stop-color="#9F19AB"/>
<stop offset="0.55" stop-color="#61015E"/>
<stop offset="0.85" stop-color="#61015E"/>
<stop offset="1" stop-color="#61015E"/>
</linearGradient>
<radialGradient id="paint24_radial" cx="0" cy="0" r="1" gradientUnits="userSpaceOnUse" gradientTransform="translate(22110.6 7749.95) scale(10436 6042.63)">
<stop stop-color="#61015E"/>
<stop offset="1" stop-color="#9F19AB"/>
</radialGradient>
<linearGradient id="paint25_linear" x1="22939" y1="8317.83" x2="27610.8" y2="8317.83" gradientUnits="userSpaceOnUse">
<stop stop-color="#6D0B76"/>
<stop offset="0.13" stop-color="#6D0B76"/>
<stop offset="0.55" stop-color="#61015E"/>
<stop offset="0.85" stop-color="#61015E"/>
<stop offset="1" stop-color="#61015E"/>
</linearGradient>
<radialGradient id="paint26_radial" cx="0" cy="0" r="1" gradientUnits="userSpaceOnUse" gradientTransform="translate(22104.7 6274.67) scale(10433.1 6042.62)">
<stop stop-color="#01C8EF"/>
<stop offset="0.14" stop-color="#03BAE4"/>
<stop offset="0.4" stop-color="#0895C8"/>
<stop offset="0.76" stop-color="#115A9A"/>
<stop offset="1" stop-color="#172F78"/>
</radialGradient>
<radialGradient id="paint27_radial" cx="0" cy="0" r="1" gradientUnits="userSpaceOnUse" gradientTransform="translate(23025.8 6638.79) scale(7173.17 4154.53)">
<stop stop-color="#61015E"/>
<stop offset="1" stop-color="#9F19AB"/>
</radialGradient>
<linearGradient id="paint28_linear" x1="5793.05" y1="14196" x2="10464.8" y2="14196" gradientUnits="userSpaceOnUse">
<stop stop-color="#6D0B76"/>
<stop offset="0.13" stop-color="#6D0B76"/>
<stop offset="0.55" stop-color="#61015E"/>
<stop offset="0.85" stop-color="#61015E"/>
<stop offset="1" stop-color="#61015E"/>
</linearGradient>
<radialGradient id="paint29_radial" cx="0" cy="0" r="1" gradientUnits="userSpaceOnUse" gradientTransform="translate(4965.11 12147.1) scale(10438.4 6042.63)">
<stop stop-color="#9F19AB"/>
<stop offset="0.14" stop-color="#9F19AB"/>
<stop offset="0.4" stop-color="#9F19AB"/>
<stop offset="0.76" stop-color="#61015E"/>
<stop offset="1" stop-color="#61015E"/>
</radialGradient>
<linearGradient id="paint30_linear" x1="5793.05" y1="12724.7" x2="10464.8" y2="12724.7" gradientUnits="userSpaceOnUse">
<stop stop-color="#6D0B76"/>
<stop offset="0.13" stop-color="#9F19AB"/>
<stop offset="0.55" stop-color="#9F19AB"/>
<stop offset="0.85" stop-color="#61015E"/>
<stop offset="1" stop-color="#61015E"/>
</linearGradient>
<radialGradient id="paint31_radial" cx="0" cy="0" r="1" gradientUnits="userSpaceOnUse" gradientTransform="translate(4963.8 10663.6) scale(10435.6 6037.79)">
<stop stop-color="#9F19AB"/>
<stop offset="0.14" stop-color="#9F19AB"/>
<stop offset="0.4" stop-color="#FF63CE"/>
<stop offset="0.76" stop-color="#61015E"/>
<stop offset="1" stop-color="#61015E"/>
</radialGradient>
<linearGradient id="paint32_linear" x1="5793.05" y1="11246.2" x2="10464.8" y2="11246.2" gradientUnits="userSpaceOnUse">
<stop stop-color="#6D0B76"/>
<stop offset="0.13" stop-color="#6D0B76"/>
<stop offset="0.55" stop-color="#9F19AB"/>
<stop offset="0.85" stop-color="#FF63CE"/>
<stop offset="1" stop-color="#61015E"/>
</linearGradient>
<radialGradient id="paint33_radial" cx="0" cy="0" r="1" gradientUnits="userSpaceOnUse" gradientTransform="translate(4963.99 9196.63) scale(10436 6042.63)">
<stop stop-color="#6D0B76"/>
<stop offset="0.14" stop-color="#6D0B76"/>
<stop offset="0.4" stop-color="#6D0B76"/>
<stop offset="0.76" stop-color="#6D0B76"/>
<stop offset="1" stop-color="#6D0B76"/>
</radialGradient>
<radialGradient id="paint34_radial" cx="0" cy="0" r="1" gradientUnits="userSpaceOnUse" gradientTransform="translate(5885.29 9560.75) scale(7175.11 4154.53)">
<stop stop-color="#61015E"/>
<stop offset="1" stop-color="#9F19AB"/>
</radialGradient>
<linearGradient id="paint35_linear" x1="5793.05" y1="9798.92" x2="10464.8" y2="9798.92" gradientUnits="userSpaceOnUse">
<stop stop-color="#6D0B76"/>
<stop offset="0.13" stop-color="#9F19AB"/>
<stop offset="0.55" stop-color="#61015E"/>
<stop offset="0.85" stop-color="#61015E"/>
<stop offset="1" stop-color="#61015E"/>
</linearGradient>
<radialGradient id="paint36_radial" cx="0" cy="0" r="1" gradientUnits="userSpaceOnUse" gradientTransform="translate(4963.8 7749.95) scale(10435.6 6042.63)">
<stop stop-color="#61015E"/>
<stop offset="1" stop-color="#9F19AB"/>
</radialGradient>
<linearGradient id="paint37_linear" x1="5793.05" y1="8328.63" x2="10464.8" y2="8328.63" gradientUnits="userSpaceOnUse">
<stop stop-color="#6D0B76"/>
<stop offset="0.13" stop-color="#9F19AB"/>
<stop offset="0.55" stop-color="#FF63CE"/>
<stop offset="0.85" stop-color="#9F19AB"/>
<stop offset="1" stop-color="#61015E"/>
</linearGradient>
<radialGradient id="paint38_radial" cx="0" cy="0" r="1" gradientUnits="userSpaceOnUse" gradientTransform="translate(4963.8 6279.16) scale(10435.6 6047.05)">
<stop stop-color="#01C8EF"/>
<stop offset="0.14" stop-color="#03BAE4"/>
<stop offset="0.4" stop-color="#0895C8"/>
<stop offset="0.76" stop-color="#115A9A"/>
<stop offset="1" stop-color="#172F78"/>
</radialGradient>
<radialGradient id="paint39_radial" cx="0" cy="0" r="1" gradientUnits="userSpaceOnUse" gradientTransform="translate(5885.07 6643.55) scale(7174.83 4157.57)">
<stop stop-color="#61015E"/>
<stop offset="1" stop-color="#9F19AB"/>
</radialGradient>
</defs>
</svg>
