<svg width="359" height="310" viewBox="0 0 359 310" fill="none" xmlns="http://www.w3.org/2000/svg">
<g opacity="0.3">
<path opacity="0.3" d="M169.517 222.913C135.268 203.136 79.9154 203.136 45.8841 222.913C11.8527 242.691 12.0321 274.754 46.2863 294.531C80.5405 314.309 135.893 314.303 169.924 294.531C203.956 274.759 203.771 242.691 169.517 222.913Z" fill="black"/>
</g>
<g opacity="0.3">
<path opacity="0.3" d="M314.182 144.359C279.934 124.582 224.581 124.582 190.55 144.359C156.518 164.136 156.698 196.2 190.952 215.971C225.206 235.743 280.559 235.749 314.59 215.971C348.621 196.194 348.436 164.136 314.182 144.359Z" fill="black"/>
</g>
<path d="M358.575 105.391C354.335 131.649 308.316 165.104 300.151 173.225C292.573 180.728 251.077 196.602 228.136 195.705C234.73 189.812 248.082 176.041 274.345 143.815L295.873 128.958L358.575 105.391Z" fill="#F2F2F2"/>
<path d="M358.836 100.629C344.604 107.544 304.674 120.993 304.674 120.993C304.674 120.993 291.007 126.245 275.28 113.317C275.28 113.317 236.943 55.8337 226.69 42.0418C221.64 35.2681 220.275 23.8084 220.167 13.898C241.738 5.79245 278.612 -6.249 292.122 3.86254C308.235 15.8659 357.352 72.6808 358.836 100.629Z" fill="#F4F5F5"/>
<path d="M270.153 141.923L241.787 175.683C241.787 175.683 233.404 186.599 221.781 194.878C201.237 189.915 180.003 169.246 155.295 106.859C155.295 106.859 147.233 89.9357 167.559 62.8249C177.089 50.1202 185.189 37.3503 193.958 28.5054C201.759 30.1363 215.47 34.4853 224.336 45.4558C237.285 61.4984 269.392 109.952 271.502 115.302C273.611 120.651 274.296 136.998 270.153 141.923Z" fill="white"/>
<path d="M358.76 104.087C358.717 104.527 358.657 104.951 358.575 105.391L295.867 128.958L274.34 143.815C248.082 176.042 234.731 189.812 228.131 195.705C226.039 195.648 223.958 195.386 221.917 194.922C221.879 194.922 221.819 194.922 221.776 194.878C233.399 186.599 241.782 175.683 241.782 175.683L270.148 141.923C274.291 136.998 273.606 120.651 271.496 115.285C269.387 109.92 237.28 61.4659 224.331 45.4397C215.464 34.4637 201.754 30.1419 193.953 28.4893C198.335 24.0478 202.879 20.6066 207.864 18.6604C210.74 17.5351 215.024 15.8064 220.189 13.8765C220.27 23.7869 221.635 35.2466 226.712 42.0202C236.965 55.8122 275.302 113.296 275.302 113.296C291.029 126.223 304.696 120.972 304.696 120.972C304.696 120.972 344.626 107.522 358.858 100.607C358.92 101.768 358.888 102.931 358.76 104.087Z" fill="white"/>
<path d="M358.76 104.087C358.717 104.527 358.657 104.951 358.575 105.391L295.867 128.958L274.34 143.815C248.082 176.042 234.731 189.812 228.131 195.705C226.039 195.648 223.958 195.386 221.917 194.922C221.879 194.922 221.819 194.922 221.776 194.878C233.399 186.599 241.782 175.683 241.782 175.683L270.148 141.923C274.291 136.998 273.606 120.651 271.496 115.285C269.387 109.92 237.28 61.4659 224.331 45.4397C215.464 34.4637 201.754 30.1419 193.953 28.4893C198.335 24.0478 202.879 20.6066 207.864 18.6604C210.74 17.5351 215.024 15.8064 220.189 13.8765C220.27 23.7869 221.635 35.2466 226.712 42.0202C236.965 55.8122 275.302 113.296 275.302 113.296C291.029 126.223 304.696 120.972 304.696 120.972C304.696 120.972 344.626 107.522 358.858 100.607C358.92 101.768 358.888 102.931 358.76 104.087Z" fill="#EAEAEA"/>
<path d="M166.928 104.228C163.667 98.0739 163.911 92.5071 166.668 89.2997C169.424 86.0923 176.801 87.397 178.997 90.8599C182.33 96.1005 182.547 102.586 179.1 106.332C175.654 110.077 168.891 107.973 166.928 104.228Z" fill="#444444"/>
<path d="M196.339 68.8049C193.078 62.6456 193.322 57.0787 196.084 53.8713C198.846 50.6639 206.212 51.974 208.408 55.437C211.74 60.6776 211.958 67.1631 208.511 70.9087C205.065 74.6544 198.324 72.5451 196.339 68.8049Z" fill="#444444"/>
<path d="M185.26 134.981C181.998 128.822 182.243 123.255 185.005 120.048C187.766 116.84 195.132 118.15 197.334 121.613C200.661 126.854 200.884 133.339 197.432 137.085C193.98 140.831 187.244 138.721 185.26 134.981Z" fill="#444444"/>
<path d="M214.676 99.5527C211.414 93.3987 211.653 87.832 214.415 84.6246C217.177 81.4171 224.543 82.7273 226.744 86.1848C230.071 91.4254 230.294 97.9163 226.842 101.657C223.39 105.397 216.655 103.298 214.676 99.5527Z" fill="#444444"/>
<path d="M208.495 168.985C205.233 162.826 205.478 157.259 208.234 154.052C210.99 150.844 218.362 152.154 220.563 155.617C223.89 160.858 224.113 167.343 220.667 171.089C217.22 174.835 210.474 172.725 208.495 168.985Z" fill="#444444"/>
<path d="M237.933 133.557C234.671 127.403 234.915 121.836 237.672 118.628C240.428 115.421 247.8 116.731 250.001 120.189C253.334 125.429 253.551 131.92 250.104 135.66C246.658 139.401 239.89 137.302 237.933 133.557Z" fill="#444444"/>
<path d="M284.924 156.552C292.899 149.42 297.428 146.174 302.527 148.768C307.626 151.361 300.956 159.298 299.265 160.874C297.574 162.451 290.567 167.724 285.489 166.028C280.412 164.332 282.315 158.884 284.924 156.552Z" fill="#444444"/>
<path d="M282.51 46.2496C296.215 42.0147 304.886 61.3462 295.808 64.1296C282.157 68.321 270.387 50.0061 282.51 46.2496Z" fill="#444444"/>
<path d="M283.951 84.2603C297.656 80.0254 306.327 99.357 297.248 102.14C283.598 106.326 271.817 88.0168 283.951 84.2603Z" fill="#444444"/>
<path d="M282.51 14.4962C296.215 10.2613 304.886 29.5928 295.808 32.3707C282.157 36.5621 270.387 18.2472 282.51 14.4962Z" fill="#444444"/>
<path d="M203.14 181.005C183.075 178.58 147.913 154.911 138.492 149.045C126.749 141.771 122.917 134.693 119.057 124.581C115.197 114.47 100.361 73.1158 97.3115 61.7322C96.3429 57.9832 96.7799 54.0094 98.5401 50.5605C127.059 53.3766 173.018 92.5397 179.503 104.353C185.57 115.459 202.14 157.319 203.14 181.005Z" fill="url(#paint0_linear)"/>
<path d="M198.639 197.548C183.787 217.499 128.81 257.929 112.691 257.972C98.1596 257.972 58.2462 234.145 37.9307 218.695C47.4605 203.104 69.1949 188.98 69.1949 188.98C121.302 151.236 116.942 148.17 164.189 170.91C185.657 181.239 194.92 190.508 198.639 197.548Z" fill="url(#paint1_linear)"/>
<path d="M201.623 192.709C200.809 194.425 199.809 196.046 198.639 197.542C194.92 190.508 185.657 181.233 164.189 170.904C116.942 148.164 121.302 151.23 69.1949 188.975C69.1949 188.975 47.4497 203.109 37.9307 218.689C34.4921 216.167 31.2383 213.402 28.1942 210.415C26.8378 208.964 25.6287 207.381 24.5845 205.691C12.9943 187.817 2.6381 149.018 0.12109 125.495C0.12109 125.495 -1.36846 116.693 6.10103 109.153C12.7333 102.483 51.467 67.3315 79.0128 55.1542C82.1639 53.7253 85.3906 52.4695 88.6786 51.3923C91.8855 50.443 95.254 50.1672 98.5726 50.5823C96.8125 54.0312 96.3754 58.005 97.344 61.7539C100.372 73.1375 115.224 114.519 119.089 124.603C122.955 134.687 126.782 141.771 138.524 149.067C147.945 154.916 183.102 178.602 203.173 181.027C203.336 185.783 202.906 189.812 201.623 192.709Z" fill="url(#paint2_linear)"/>
<path d="M201.623 192.709C200.809 194.425 199.808 196.046 198.639 197.542C194.92 190.508 185.657 181.233 164.189 170.904C116.942 148.164 121.302 151.23 69.1948 188.975C69.1948 188.975 47.4495 203.109 37.9305 218.689C34.492 216.167 31.2381 213.402 28.194 210.415C26.8376 208.964 25.6285 207.381 24.5844 205.691C27.322 206.448 30.1922 206.597 32.9935 206.128C35.7949 205.658 38.4596 204.581 40.8008 202.973C52.4182 195.27 109.364 155.101 110.81 151.872C112.256 148.643 114.794 139.912 113.696 128.158C112.598 116.405 94.1257 69.3485 92.0001 63.0913C91.0433 60.3351 85.2046 57.4809 78.9909 55.1542C82.1419 53.7253 85.3687 52.4695 88.6567 51.3923C91.8636 50.443 95.2323 50.1672 98.5509 50.5823C96.7907 54.0312 96.3537 58.005 97.3223 61.7539C100.35 73.1375 115.202 114.519 119.067 124.603C122.933 134.687 126.76 141.771 138.502 149.067C147.923 154.916 183.08 178.602 203.151 181.027C203.336 185.783 202.906 189.812 201.623 192.709Z" fill="#BE06B8"/>
<path d="M15.1089 128.903C11.1513 122.885 14.3749 117.487 17.7183 114.372C21.0616 111.257 27.4384 112.284 29.738 115.834C32.0376 119.384 31.7277 125.87 27.5635 129.528C23.3993 133.187 17.5118 132.562 15.1089 128.903Z" fill="#EAEAEA"/>
<path d="M65.1502 93.7792C61.1925 87.7612 64.4163 82.3629 67.7596 79.2479C71.103 76.1329 77.4798 77.1603 79.7794 80.7102C82.0789 84.2601 81.7691 90.7457 77.6048 94.4043C73.4406 98.063 67.553 97.4378 65.1502 93.7792Z" fill="#EAEAEA"/>
<path d="M83.0304 145.044C79.0782 139.026 82.2965 133.627 85.6453 130.512C88.994 127.397 95.3653 128.425 97.6649 131.975C99.9644 135.525 99.6491 142.01 95.4904 145.669C91.3316 149.327 85.4332 148.702 83.0304 145.044Z" fill="#EAEAEA"/>
<path d="M30.211 180.352C26.2588 174.334 29.4825 168.936 32.8258 165.827C36.1692 162.717 42.546 163.734 44.8456 167.289C47.1452 170.844 46.8353 177.324 42.6711 180.983C38.5069 184.642 32.6192 184.011 30.211 180.352Z" fill="#EAEAEA"/>
<path d="M105.797 201.897C109.679 197.798 117.822 197.982 120.899 199.94C123.976 201.897 125.792 208.638 120.899 211.405C118.79 212.677 116.372 213.35 113.908 213.35C111.444 213.35 109.027 212.677 106.917 211.405C102.72 209.013 103.28 204.539 105.797 201.897Z" fill="#EAEAEA"/>
<path d="M121.731 74.9046C126.146 76.5355 128.217 80.5584 129.141 83.706C130.065 86.8536 129.326 88.8977 125.879 88.5987C122.433 88.2997 117.91 83.5049 116.801 80.5421C115.692 77.5793 115.893 72.7736 121.731 74.9046Z" fill="#EAEAEA"/>
<path d="M167.26 101.667C171.675 103.298 173.746 107.316 174.67 110.469C175.594 113.622 174.86 115.655 171.408 115.361C167.956 115.068 163.439 110.268 162.33 107.299C161.221 104.331 161.395 99.5364 167.26 101.667Z" fill="#EAEAEA"/>
<path d="M137.872 124.538C142.281 126.169 144.357 130.186 145.281 133.339C146.206 136.492 145.466 138.525 142.02 138.232C138.573 137.938 134.05 133.138 132.936 130.17C131.821 127.202 132.033 122.407 137.872 124.538Z" fill="#EAEAEA"/>
<path d="M183.373 151.296C187.782 152.927 189.859 156.949 190.783 160.103C191.707 163.256 190.968 165.289 187.521 164.995C184.075 164.702 179.552 159.896 178.437 156.933C177.323 153.97 177.535 149.165 183.373 151.296Z" fill="#EAEAEA"/>
<path d="M152.55 112.393C156.964 114.024 159.035 118.041 159.965 121.194C160.894 124.347 160.15 126.381 156.703 126.087C153.256 125.794 148.733 120.993 147.624 118.025C146.515 115.057 146.716 110.262 152.55 112.393Z" fill="#EAEAEA"/>
<defs>
<linearGradient id="paint0_linear" x1="149.974" y1="50.5605" x2="223.567" y2="131.164" gradientUnits="userSpaceOnUse">
<stop stop-color="#990094"/>
<stop offset="0.659327" stop-color="#61015E"/>
</linearGradient>
<linearGradient id="paint1_linear" x1="118.285" y1="156.565" x2="162.494" y2="250.7" gradientUnits="userSpaceOnUse">
<stop stop-color="#990094"/>
<stop offset="0.659327" stop-color="#61015E"/>
</linearGradient>
<linearGradient id="paint2_linear" x1="101.603" y1="50.3948" x2="186.777" y2="188.575" gradientUnits="userSpaceOnUse">
<stop stop-color="#990094"/>
<stop offset="0.659327" stop-color="#61015E"/>
</linearGradient>
</defs>
</svg>
