<svg width="132" height="133" viewBox="0 0 132 133" fill="none" xmlns="http://www.w3.org/2000/svg">
<ellipse cx="66" cy="66.6646" rx="66" ry="65.9842" fill="url(#paint0_linear)"/>
<path fill-rule="evenodd" clip-rule="evenodd" d="M90.118 32.3436L70.5108 21.2515L50.9035 32.3436L31.0215 42.9822L31.2962 64.7128L31.0215 86.4435L50.9035 97.082L70.5108 108.174L90.118 97.082L110 86.4435L109.725 64.7128L110 42.9822L90.118 32.3436ZM84.2357 42.0545L70.5106 34.29L56.7855 42.0545L42.8681 49.5015L43.0604 64.713L42.8681 79.9244L56.7855 87.3714L70.5106 95.1359L84.2357 87.3714L98.1531 79.9244L97.9608 64.713L98.1531 49.5015L84.2357 42.0545Z" fill="#61015E"/>
<path fill-rule="evenodd" clip-rule="evenodd" d="M83.779 35.8218L63.9453 24.7294L44.1116 35.8218L24 46.4607L24.2779 68.192L24 89.9232L44.1116 100.562L63.9453 111.655L83.779 100.562L103.891 89.9232L103.613 68.192L103.891 46.4607L83.779 35.8218ZM77.8289 45.5315L63.9454 37.7668L50.0618 45.5315L35.9836 52.9787L36.1782 68.1906L35.9836 83.4025L50.0618 90.8497L63.9454 98.6144L77.8289 90.8497L91.9071 83.4025L91.7125 68.1906L91.9071 52.9787L77.8289 45.5315Z" fill="white"/>
<defs>
<linearGradient id="paint0_linear" x1="107.026" y1="123.741" x2="-2.47409" y2="69.832" gradientUnits="userSpaceOnUse">
<stop stop-color="#B600B0"/>
<stop offset="0.659327" stop-color="#791476"/>
</linearGradient>
</defs>
</svg>
