<svg width="71" height="70" viewBox="0 0 71 70" fill="none" xmlns="http://www.w3.org/2000/svg">
<g clip-path="url(#clip0)">
<path d="M35.5667 3.22217V66.7777" stroke="#F7F7F7" stroke-width="5" stroke-linecap="round" stroke-linejoin="round"/>
<path d="M50.0109 14.7776H28.3443C25.6626 14.7776 23.0908 15.8429 21.1946 17.7391C19.2984 19.6353 18.2332 22.2071 18.2332 24.8887C18.2332 27.5703 19.2984 30.1421 21.1946 32.0383C23.0908 33.9345 25.6626 34.9998 28.3443 34.9998H42.7887C45.4703 34.9998 48.0421 36.0651 49.9383 37.9613C51.8345 39.8575 52.8998 42.4293 52.8998 45.1109C52.8998 47.7926 51.8345 50.3644 49.9383 52.2606C48.0421 54.1568 45.4703 55.222 42.7887 55.222H18.2332" stroke="#F7F7F7" stroke-width="5" stroke-linecap="round" stroke-linejoin="round"/>
</g>
<defs>
<clipPath id="clip0">
<rect width="69.3333" height="69.3333" fill="white" transform="translate(0.899902 0.333252)"/>
</clipPath>
</defs>
</svg>
