<svg width="62" height="44" viewBox="0 0 62 44" fill="none" xmlns="http://www.w3.org/2000/svg">
<path d="M12.6054 43.6666C11.5517 43.6684 10.5025 43.53 9.48537 43.255C6.43233 42.3843 3.84214 40.3517 2.27051 37.5933C0.698879 34.8348 0.271012 31.5703 1.0787 28.5L6.12703 9.34663C6.52019 7.79654 7.21913 6.34063 8.1828 5.06442C9.14647 3.78821 10.3554 2.71743 11.7387 1.91497C13.0856 1.13486 14.5738 0.629754 16.1173 0.428918C17.6607 0.228083 19.2287 0.335506 20.7304 0.744965C22.3266 1.18824 23.8134 1.95831 25.0964 3.00637C26.3795 4.05442 27.4308 5.3576 28.1837 6.8333H33.817C34.5667 5.35524 35.617 4.05014 36.9005 3.00169C38.184 1.95324 39.6724 1.18457 41.2704 0.744965C42.772 0.335506 44.34 0.228083 45.8834 0.428918C47.4269 0.629754 48.9152 1.13486 50.262 1.91497C51.6386 2.71537 52.8431 3.78028 53.8062 5.04833C54.7693 6.31637 55.472 7.76247 55.8737 9.3033L60.922 28.5C61.7418 31.5792 61.3173 34.8573 59.7403 37.6262C58.1633 40.3951 55.5603 42.4325 52.4937 43.2983C50.992 43.7077 49.4241 43.8152 47.8806 43.6143C46.3372 43.4135 44.8489 42.9084 43.502 42.1283C42.1232 41.3307 40.9169 40.2667 39.9535 38.9982C38.9901 37.7298 38.2887 36.2822 37.8904 34.74L37.5004 32.8333H24.5004L24.002 34.6966C23.6037 36.2389 22.9023 37.6864 21.9389 38.9549C20.9754 40.2234 19.7692 41.2874 18.3904 42.085C16.6299 43.1003 14.6375 43.6451 12.6054 43.6666ZM17.632 4.66663C16.3245 4.67107 15.0405 5.01447 13.9054 5.6633C12.1262 6.70716 10.833 8.41327 10.3087 10.4083L5.26037 29.5616C4.73211 31.5349 4.99903 33.6367 6.00379 35.4152C7.00854 37.1938 8.67093 38.5073 10.6337 39.0733C11.5816 39.3319 12.5714 39.3999 13.5458 39.2734C14.5202 39.147 15.4598 38.8286 16.3104 38.3366C17.1959 37.8254 17.9703 37.1422 18.5879 36.3274C19.2056 35.5125 19.6541 34.5824 19.907 33.5916L21.2504 28.5H40.7504L42.072 33.5916C42.3295 34.5805 42.7797 35.5087 43.3969 36.323C44.0142 37.1373 44.7862 37.8216 45.6687 38.3366C46.5234 38.8281 47.4667 39.1461 48.4445 39.2726C49.4223 39.399 50.4154 39.3312 51.367 39.0733C53.3322 38.5125 54.9966 37.1989 55.9987 35.4179C57.0008 33.6369 57.2595 31.5323 56.7187 29.5616L51.6704 10.4083C51.4188 9.41986 50.9732 8.49131 50.3595 7.6767C49.7457 6.86209 48.9761 6.17768 48.0954 5.6633C47.2406 5.17182 46.2974 4.85378 45.3196 4.72737C44.3418 4.60096 43.3486 4.66867 42.397 4.92663C41.2202 5.26209 40.1404 5.8735 39.2473 6.71007C38.3542 7.54663 37.6736 8.58422 37.262 9.73663L36.742 11.1666H25.2587L24.7387 9.73663C24.3235 8.58267 23.639 7.54436 22.7422 6.70784C21.8454 5.87132 20.7621 5.26069 19.582 4.92663C18.9462 4.75518 18.2906 4.66777 17.632 4.66663Z" fill="#F7F7F7"/>
</svg>
