<svg width="31" height="30" viewBox="0 0 31 30" fill="none" xmlns="http://www.w3.org/2000/svg">
<path d="M29.7995 12.1437H28.6248V12.0832H15.4998V17.9165H23.7416C22.5392 21.3122 19.3083 23.7498 15.4998 23.7498C10.6677 23.7498 6.74984 19.832 6.74984 14.9998C6.74984 10.1677 10.6677 6.24984 15.4998 6.24984C17.7304 6.24984 19.7596 7.0913 21.3047 8.46578L25.4296 4.34088C22.825 1.91348 19.3411 0.416504 15.4998 0.416504C7.44619 0.416504 0.916504 6.94619 0.916504 14.9998C0.916504 23.0535 7.44619 29.5832 15.4998 29.5832C23.5535 29.5832 30.0832 23.0535 30.0832 14.9998C30.0832 14.022 29.9825 13.0675 29.7995 12.1437Z" fill="#FFC107"/>
<path d="M2.59814 8.21202L7.3895 11.7259C8.68596 8.51609 11.8257 6.24984 15.5 6.24984C17.7305 6.24984 19.7598 7.09129 21.3049 8.46577L25.4298 4.34088C22.8252 1.91348 19.3413 0.416504 15.5 0.416504C9.89856 0.416504 5.04085 3.5789 2.59814 8.21202Z" fill="#FF3D00"/>
<path d="M15.4999 29.5833C19.2668 29.5833 22.6895 28.1418 25.2773 25.7975L20.7638 21.9781C19.2504 23.129 17.4012 23.7515 15.4999 23.75C11.7068 23.75 8.48605 21.3314 7.27271 17.9561L2.51709 21.6201C4.93063 26.3429 9.83209 29.5833 15.4999 29.5833Z" fill="#4CAF50"/>
<path d="M29.7997 12.144H28.625V12.0835H15.5V17.9168H23.7418C23.1666 19.533 22.1306 20.9452 20.7617 21.979L20.7639 21.9776L25.2774 25.7969C24.958 26.0871 30.0833 22.2918 30.0833 15.0002C30.0833 14.0224 29.9827 13.0679 29.7997 12.144Z" fill="#1976D2"/>
</svg>
