<svg width="71" height="70" viewBox="0 0 71 70" fill="none" xmlns="http://www.w3.org/2000/svg">
<path d="M57.2332 30.6665H52.8999V34.9998H57.2332C58.9566 35.0016 60.6089 35.6869 61.8275 36.9055C63.0461 38.1242 63.7315 39.7765 63.7332 41.4998V50.1665H68.0666V41.4998C68.0631 38.6277 66.9207 35.8742 64.8898 33.8433C62.8589 31.8124 60.1054 30.6699 57.2332 30.6665Z" fill="#F7F7F7"/>
<path d="M52.9 8.99984C54.1856 8.99984 55.4423 9.38106 56.5112 10.0953C57.5801 10.8095 58.4132 11.8247 58.9052 13.0124C59.3972 14.2001 59.5259 15.507 59.2751 16.7679C59.0243 18.0288 58.4052 19.187 57.4962 20.096C56.5871 21.0051 55.429 21.6241 54.1681 21.8749C52.9072 22.1257 51.6003 21.997 50.4125 21.5051C49.2248 21.0131 48.2097 20.18 47.4954 19.111C46.7812 18.0421 46.4 16.7854 46.4 15.4998C46.4 13.7759 47.0848 12.1226 48.3038 10.9036C49.5228 9.68466 51.1761 8.99984 52.9 8.99984ZM52.9 4.6665C50.7574 4.6665 48.6628 5.30187 46.8813 6.49225C45.0998 7.68263 43.7112 9.37457 42.8913 11.3541C42.0713 13.3336 41.8568 15.5119 42.2748 17.6133C42.6928 19.7148 43.7246 21.6451 45.2397 23.1602C46.7547 24.6752 48.685 25.707 50.7865 26.125C52.888 26.543 55.0662 26.3285 57.0457 25.5085C59.0253 24.6886 60.7172 23.3 61.9076 21.5185C63.098 19.737 63.7333 17.6425 63.7333 15.4998C63.7333 12.6267 62.592 9.87116 60.5603 7.83951C58.5287 5.80787 55.7732 4.6665 52.9 4.6665Z" fill="#F7F7F7"/>
<path d="M50.7332 65.3332H46.3999V60.9998C46.3982 59.2765 45.7128 57.6242 44.4942 56.4055C43.2756 55.1869 41.6233 54.5016 39.8999 54.4998H31.2332C29.5099 54.5016 27.8576 55.1869 26.6389 56.4055C25.4203 57.6242 24.735 59.2765 24.7332 60.9998V65.3332H20.3999V60.9998C20.4033 58.1277 21.5458 55.3742 23.5767 53.3433C25.6076 51.3124 28.3611 50.1699 31.2332 50.1665H39.8999C42.772 50.1699 45.5255 51.3124 47.5564 53.3433C49.5873 55.3742 50.7298 58.1277 50.7332 60.9998V65.3332Z" fill="#F7F7F7"/>
<path d="M35.5665 28.4998C36.8521 28.4998 38.1088 28.8811 39.1777 29.5953C40.2466 30.3095 41.0797 31.3247 41.5717 32.5124C42.0637 33.7001 42.1924 35.0071 41.9416 36.2679C41.6908 37.5288 41.0717 38.687 40.1627 39.596C39.2536 40.5051 38.0955 41.1241 36.8346 41.3749C35.5737 41.6258 34.2668 41.497 33.0791 41.0051C31.8913 40.5131 30.8762 39.68 30.1619 38.611C29.4477 37.5421 29.0665 36.2854 29.0665 34.9998C29.0665 33.2759 29.7513 31.6226 30.9703 30.4036C32.1893 29.1847 33.8426 28.4998 35.5665 28.4998ZM35.5665 24.1665C33.4239 24.1665 31.3293 24.8019 29.5478 25.9923C27.7663 27.1826 26.3777 28.8746 25.5578 30.8541C24.7378 32.8336 24.5233 35.0119 24.9413 37.1133C25.3593 39.2148 26.3911 41.1451 27.9062 42.6602C29.4212 44.1752 31.3516 45.207 33.453 45.625C35.5545 46.043 37.7327 45.8285 39.7122 45.0085C41.6918 44.1886 43.3837 42.8001 44.5741 41.0185C45.7645 39.237 46.3998 37.1425 46.3998 34.9998C46.3998 32.1267 45.2585 29.3712 43.2268 27.3395C41.1952 25.3079 38.4397 24.1665 35.5665 24.1665Z" fill="#F7F7F7"/>
<path d="M18.2333 30.6665H13.9C11.0279 30.6699 8.27436 31.8124 6.24346 33.8433C4.21256 35.8742 3.07009 38.6277 3.06665 41.4998V50.1665H7.39998V41.4998C7.4017 39.7765 8.08708 38.1242 9.30569 36.9055C10.5243 35.6869 12.1766 35.0016 13.9 34.9998H18.2333V30.6665Z" fill="#F7F7F7"/>
<path d="M18.2332 8.99984C19.5188 8.99984 20.7755 9.38106 21.8444 10.0953C22.9134 10.8095 23.7465 11.8247 24.2385 13.0124C24.7304 14.2001 24.8591 15.507 24.6083 16.7679C24.3575 18.0288 23.7385 19.187 22.8294 20.096C21.9204 21.0051 20.7622 21.6241 19.5013 21.8749C18.2404 22.1257 16.9335 21.997 15.7458 21.5051C14.5581 21.0131 13.5429 20.18 12.8287 19.111C12.1145 18.0421 11.7332 16.7854 11.7332 15.4998C11.7332 13.7759 12.4181 12.1226 13.637 10.9036C14.856 9.68466 16.5093 8.99984 18.2332 8.99984ZM18.2332 4.6665C16.0906 4.6665 13.9961 5.30187 12.2146 6.49225C10.433 7.68263 9.04449 9.37457 8.22455 11.3541C7.4046 13.3336 7.19006 15.5119 7.60807 17.6133C8.02607 19.7148 9.05785 21.6451 10.5729 23.1602C12.088 24.6752 14.0183 25.707 16.1198 26.125C18.2212 26.543 20.3994 26.3285 22.379 25.5085C24.3585 24.6886 26.0504 23.3 27.2408 21.5185C28.4312 19.737 29.0666 17.6425 29.0666 15.4998C29.0666 12.6267 27.9252 9.87116 25.8936 7.83951C23.8619 5.80787 21.1064 4.6665 18.2332 4.6665Z" fill="#F7F7F7"/>
</svg>
