<svg width="71" height="70" viewBox="0 0 71 70" fill="none" xmlns="http://www.w3.org/2000/svg">
<path d="M55.7884 14.7778L35.5662 35.0001L15.344 55.2223" stroke="#F7F7F7" stroke-width="6" stroke-linecap="round" stroke-linejoin="round"/>
<path d="M19.6775 26.3334C23.6663 26.3334 26.8998 23.0999 26.8998 19.1111C26.8998 15.1224 23.6663 11.8889 19.6775 11.8889C15.6888 11.8889 12.4553 15.1224 12.4553 19.1111C12.4553 23.0999 15.6888 26.3334 19.6775 26.3334Z" stroke="#F7F7F7" stroke-width="6" stroke-linecap="round" stroke-linejoin="round"/>
<path d="M51.4554 58.1112C55.4441 58.1112 58.6776 54.8777 58.6776 50.889C58.6776 46.9002 55.4441 43.6667 51.4554 43.6667C47.4667 43.6667 44.2332 46.9002 44.2332 50.889C44.2332 54.8777 47.4667 58.1112 51.4554 58.1112Z" stroke="#F7F7F7" stroke-width="6" stroke-linecap="round" stroke-linejoin="round"/>
</svg>
