<svg width="71" height="70" viewBox="0 0 71 70" fill="none" xmlns="http://www.w3.org/2000/svg">
<path d="M35.5666 6.11108C42.2111 6.11108 47.9889 11.8889 47.9889 18.2444C47.953 20.4848 47.3315 22.6768 46.1861 24.6026C45.0408 26.5284 43.4114 28.121 41.46 29.2222C44.3489 27.7778 48.5666 27.7778 48.5666 27.7778C55.7889 27.7778 61.5666 32.9778 61.5666 40.2C61.5666 47.4222 55.7889 52.3333 48.5666 52.3333C48.5666 52.3333 44.2333 52.3333 38.4555 49.4444C38.4555 49.4444 37.5889 55.2222 44.2333 63.8889H26.9C33.5444 55.2222 32.6778 49.4444 32.6778 49.4444C26.9 52.3333 22.5666 52.3333 22.5666 52.3333C15.3444 52.3333 9.56665 47.4222 9.56665 40.2C9.56665 32.9778 15.3444 27.7778 22.5666 27.7778C22.5666 27.7778 26.7844 27.7778 29.6733 29.2222C28.8066 28.7311 23.4044 25.6689 23.1444 18.2444C23.1444 11.8889 28.9222 6.11108 35.5666 6.11108Z" fill="#F7F7F7"/>
</svg>
