<svg width="158" height="238" viewBox="0 0 158 238" fill="none" xmlns="http://www.w3.org/2000/svg">
<path d="M16.0943 232.043L6.76465 229.79C7.22262 229.903 7.69062 229.971 8.16186 229.992L17.4915 232.246C17.0202 232.224 16.5522 232.156 16.0943 232.043Z" fill="#B1DAB6"/>
<path d="M112.792 235.424L122.122 237.722L17.4905 232.247L8.16089 229.949L112.792 235.424Z" fill="url(#paint0_linear)"/>
<path d="M150.653 32.621L141.323 30.3684C145.83 31.4947 148.715 36.8334 147.904 43.028L124.084 223.642C123.182 230.399 118.157 235.761 112.816 235.468L122.146 237.72C127.442 237.991 132.467 232.719 133.413 225.872L157.233 45.2806C157.977 39.0634 155.16 33.6347 150.653 32.621Z" fill="#61015E"/>
<path d="M139.88 30.1207C145.176 30.4136 148.737 36.1802 147.835 42.9831L124.015 223.597C123.114 230.354 118.089 235.716 112.748 235.423L8.11633 229.949C2.82053 229.679 -0.762567 223.934 0.138845 217.109L23.9812 36.4956C24.86 29.7378 29.9079 24.3766 35.2488 24.6469L139.88 30.1207Z" fill="#9F19AB"/>
<path d="M112.025 224.836L113.896 225.309L9.26423 219.812L7.3938 219.361L112.025 224.836Z" fill="#CDCDCD"/>
<path d="M138.076 42.8024L136.206 42.3519C136.395 42.4231 136.552 42.5606 136.647 42.7387C136.742 42.9169 136.77 43.1237 136.724 43.3205L112.882 223.934C112.872 224.162 112.78 224.379 112.622 224.545C112.465 224.71 112.253 224.814 112.025 224.835L113.896 225.286C114.125 225.269 114.34 225.167 114.498 225.001C114.657 224.834 114.747 224.614 114.752 224.385L138.572 43.771C138.624 43.5768 138.602 43.3702 138.511 43.1913C138.419 43.0123 138.264 42.8737 138.076 42.8024Z" fill="#D2D2D2"/>
<path d="M136.119 42.329C136.524 42.329 136.795 42.802 136.727 43.3201L112.885 223.934C112.875 224.162 112.783 224.379 112.625 224.544C112.468 224.71 112.256 224.813 112.029 224.835L7.3971 219.361C6.99147 219.361 6.72107 218.888 6.78867 218.37L30.6085 37.7562C30.6183 37.528 30.7105 37.311 30.8679 37.1454C31.0253 36.9798 31.2373 36.8767 31.4648 36.8551L136.119 42.329Z" fill="url(#paint1_linear)"/>
<path d="M54.1534 47.4884L50.4351 46.5645C50.607 46.588 50.7814 46.588 50.9534 46.5645L54.6717 47.4884C54.4996 47.5104 54.3254 47.5104 54.1534 47.4884Z" fill="#61015E"/>
<path d="M88.2542 23.4756L84.5133 22.5521C81.426 21.7862 79.5781 17.8441 80.6598 13.5417C80.9561 12.0815 81.6558 10.7336 82.6794 9.65066C83.703 8.56772 85.0097 7.7931 86.4513 7.4146C86.7665 7.39321 87.0827 7.39321 87.3978 7.4146L91.1387 8.33817C90.8241 8.30496 90.5068 8.30496 90.1922 8.33817C88.7457 8.70694 87.4337 9.47846 86.4084 10.5631C85.3832 11.6477 84.687 13.0008 84.4006 14.4652C83.3189 18.7677 85.1668 22.7098 88.2542 23.4756Z" fill="url(#paint2_linear)"/>
<path d="M88.2492 7.46007L91.99 8.38402C91.7085 8.31702 91.4222 8.27182 91.1337 8.24881L87.3928 7.32486C87.6815 7.34614 87.968 7.39137 88.2492 7.46007Z" fill="#61015E"/>
<path d="M89.6697 0.971619L93.4105 1.89518C98.3007 3.08906 101.658 8.65298 101.298 15.1179C101.246 16.0565 101.125 16.9901 100.937 17.9112C100.71 18.567 100.739 19.2845 101.019 19.9197C101.299 20.5548 101.809 21.0605 102.447 21.3351L98.819 20.4116C98.1848 20.1327 97.678 19.6266 97.3985 18.9928C97.119 18.3591 97.0872 17.6437 97.3091 16.9876C97.5045 16.0671 97.6326 15.1335 97.6922 14.1944C97.9176 7.66184 94.5598 2.09792 89.6697 0.971619Z" fill="url(#paint3_linear)"/>
<path d="M111.573 49.8093L115.314 50.7333L54.6715 47.5558L50.9531 46.6318L111.573 49.8093Z" fill="url(#paint4_linear)"/>
<path d="M115.336 21.3119C117.319 21.3119 118.649 23.5645 118.311 26.1325L115.764 45.4148C115.767 46.5569 115.336 47.6575 114.558 48.4939C113.779 49.3303 112.713 49.84 111.573 49.92L50.9527 46.7438C48.9696 46.7438 47.64 44.4912 47.978 41.9683L50.502 22.686C50.5399 21.5524 50.9879 20.4711 51.7628 19.6426C52.5378 18.8141 53.5871 18.2947 54.7161 18.1808L72.4739 19.1269C73.8711 19.1269 75.088 17.6627 75.2232 15.8381C75.229 15.3855 75.2666 14.9339 75.3359 14.4866C76.35 6.67004 82.0965 0.610544 88.0909 0.790752C94.0853 0.97096 97.9613 7.03045 97.5782 14.3064C97.5186 15.2455 97.3905 16.179 97.1951 17.0996C96.8346 18.8791 97.6459 20.501 99.0431 20.5686L115.336 21.3119ZM92.0571 16.5364C93.2515 11.7834 90.9529 7.52603 87.3472 7.32329C87.0321 7.3019 86.7159 7.3019 86.4007 7.32329C84.9591 7.70179 83.6525 8.47641 82.6288 9.55935C81.6052 10.6423 80.9055 11.9902 80.6091 13.4504C79.4373 18.1808 81.7359 22.4608 85.319 22.641C85.6412 22.6738 85.9659 22.6738 86.2881 22.641C87.7294 22.2818 89.038 21.5186 90.06 20.4411C91.0821 19.3636 91.7749 18.0167 92.0571 16.559" fill="url(#paint5_linear)"/>
<path d="M119.576 22.3707L115.858 21.4697C116.767 21.8323 117.515 22.5097 117.966 23.3782C118.417 24.2466 118.541 25.2482 118.314 26.2001L115.768 45.4824C115.771 46.6246 115.339 47.7252 114.561 48.5615C113.783 49.3979 112.716 49.9076 111.576 49.9876L115.317 50.9112C116.447 50.8062 117.5 50.2889 118.273 49.4579C119.046 48.6269 119.486 47.5405 119.509 46.406L122.033 27.1462C122.276 26.1877 122.161 25.1733 121.709 24.2938C121.256 23.4143 120.498 22.7303 119.576 22.3707Z" fill="url(#paint6_linear)"/>
<path d="M105.874 84.3425L105.761 85.3566L46.6514 82.2468L46.7866 81.2327L105.874 84.3425Z" fill="#1B1B1B"/>
<path d="M100.558 87.8786L100.423 88.8927L46.1577 86.0532L46.2929 85.0391L100.558 87.8786Z" fill="#1B1B1B"/>
<path d="M99.5406 95.4691L99.4279 96.4832L45.1628 93.6212L45.298 92.6296L99.5406 95.4691Z" fill="#1B1B1B"/>
<path d="M104.882 91.9326L104.747 92.9241L45.6589 89.8368L45.7941 88.8227L104.882 91.9326Z" fill="#1B1B1B"/>
<path d="M66.9564 97.585L66.8212 98.5765L44.6689 97.4272L44.8042 96.4131L66.9564 97.585Z" fill="#1B1B1B"/>
<path d="M95.9788 122.546L95.8436 123.537L41.5786 120.698L41.7138 119.684L95.9788 122.546Z" fill="#1B1B1B"/>
<path d="M101.32 118.987L101.185 120.001L42.0974 116.891L42.2326 115.899L101.32 118.987Z" fill="#1B1B1B"/>
<path d="M96.9957 114.931L96.8605 115.945L42.5955 113.106L42.7307 112.092L96.9957 114.931Z" fill="#1B1B1B"/>
<path d="M102.31 111.395L102.175 112.409L43.0872 109.3L43.2224 108.308L102.31 111.395Z" fill="#1B1B1B"/>
<path d="M63.3949 124.639L63.2597 125.653L41.085 124.482L41.2202 123.467L63.3949 124.639Z" fill="#1B1B1B"/>
<path d="M98.7504 138.472L98.6152 139.463L39.5276 136.376L39.6628 135.362L98.7504 138.472Z" fill="#1B1B1B"/>
<path d="M97.7379 146.041L97.6027 147.055L38.5151 143.967L38.6503 142.953L97.7379 146.041Z" fill="#1B1B1B"/>
<path d="M93.4153 142.007L93.2801 143.021L39.0376 140.182L39.1503 139.168L93.4153 142.007Z" fill="#1B1B1B"/>
<path d="M59.8126 151.693L59.6774 152.708L37.5251 151.558L37.6604 150.544L59.8126 151.693Z" fill="#1B1B1B"/>
<path d="M92.4217 149.576L92.2865 150.613L38.0215 147.773L38.1567 146.737L92.4217 149.576Z" fill="#1B1B1B"/>
<path d="M36.0592 165.434L35.7663 167.62L36.6001 167.665L36.5776 167.958L35.4958 167.913L35.8113 165.434H36.0592Z" fill="#010101"/>
<path d="M38.0886 166.785V167.168V167.529L37.9309 167.822L37.7055 167.979H37.4351H37.1647L36.9844 167.799V167.506V167.146L37.0971 166.763L37.2548 166.492L37.4802 166.334H37.7506H37.9985L38.1787 166.515L38.0886 166.785ZM37.6604 167.641L37.8182 167.146V166.65L37.5478 166.47H37.3675H37.2323V166.695V166.988V167.236V167.461L37.3449 167.596H37.5027L37.8182 167.461L37.6604 167.641Z" fill="#010101"/>
<path d="M39.124 166.313L39.2367 166.335L39.3043 166.38L39.2367 166.606L39.2142 166.651L39.124 166.628L39.0339 166.606L38.8311 166.673L38.6282 166.966L38.493 168.07L38.2451 168.048L38.4705 166.29L38.6282 166.313L38.6733 166.335L38.6959 166.403L38.6508 166.673L38.8761 166.38L39.124 166.313Z" fill="#010101"/>
<path d="M40.5221 167.28H39.6207V167.551V167.754V167.889H39.8009H39.9587H40.0714V168.024H39.9362H39.8009H39.4855H39.2601L39.0798 167.844V167.551V167.145V166.807L39.2601 166.537L39.4855 166.379H39.7559H39.9587L40.1164 166.537V166.785V167.123L40.5221 167.28ZM39.6207 167.055H40.3418V166.852V166.695H40.184H39.9136L39.7333 167.055H39.6207Z" fill="#010101"/>
<path d="M42.3486 166.471L42.5514 166.538L42.6641 166.651L42.7317 166.876V167.169L42.574 168.274H42.3486L42.4838 167.169L42.4613 166.854L42.2585 166.719H42.1458L42.0331 166.831L41.9655 166.944L41.9204 167.124L41.7852 168.228H41.5373L41.6726 167.124L41.65 166.809L41.4697 166.674L41.2895 166.741L41.1543 166.899L40.974 168.183H40.7261L40.974 166.426H41.1092L41.1543 166.516V166.674L41.3571 166.493L41.5824 166.426L41.7852 166.538L41.8754 166.809L41.9655 166.651L42.1007 166.561L42.2134 166.493L42.3486 166.471Z" fill="#010101"/>
<path d="M44.0373 165.885L44.0597 165.952V166.042L44.0373 166.131L43.9924 166.199L43.9476 166.244L43.8579 166.266L43.8131 166.221L43.7458 166.176L43.7234 166.109V166.042L43.7458 165.93L43.7906 165.862L43.8579 165.818L43.9252 165.795L43.9924 165.84L44.0373 165.885Z" fill="#010101"/>
<path d="M43.4727 168.318L43.698 166.56L43.9459 166.583L43.7205 168.341L43.4727 168.318Z" fill="#010101"/>
<path d="M46.2456 166.673L46.4935 166.741L46.6513 166.921L46.5837 167.011L46.516 167.056L46.4935 167.034L46.4259 166.966L46.3358 166.921H46.2231H46.1104L46.0203 166.989L45.9527 167.056L45.9301 167.146L45.9527 167.259L45.9977 167.349L46.1104 167.417L46.2231 167.484L46.3583 167.53L46.4484 167.642L46.516 167.755L46.5386 167.958L46.471 168.16L46.3583 168.341L46.1555 168.431L45.9301 168.476L45.7048 168.408L45.502 168.228L45.5921 168.115L45.6372 168.093L45.6597 168.07L45.7048 168.093L45.7724 168.183L45.8625 168.228L45.9752 168.273L46.1104 168.251L46.2005 168.183L46.2681 168.093L46.2907 167.98L46.2681 167.868L46.2231 167.8L46.1104 167.71L45.9977 167.665L45.8625 167.575L45.7724 167.507L45.7048 167.349V167.169L45.7498 166.966L45.8625 166.808L46.0428 166.718L46.2456 166.673Z" fill="#010101"/>
<path d="M45.4599 167.146V167.53V167.89L45.3247 168.183L45.0994 168.363H44.8515H44.6487L44.5134 168.183V168.949H44.2881L44.581 166.696H44.7388V166.899L44.9642 166.673H45.2346H45.4374L45.5726 166.876L45.4599 167.146ZM45.0318 168.025L45.1895 167.53V167.237V167.034V166.899H45.0543H44.8289L44.6487 167.079V167.913L44.7839 168.093H44.9416L45.2571 167.935L45.0318 168.025Z" fill="#010101"/>
<path d="M48.0912 166.809L47.8658 168.567L47.7081 168.544L47.663 168.477V168.274L47.4376 168.477L47.1897 168.544L47.0095 168.477L46.8742 168.364L46.8066 168.138L46.8292 167.868L46.9644 166.741H47.1897L47.0545 167.891L47.0771 168.184L47.2799 168.296L47.4827 168.251L47.6855 168.093L47.8433 166.786L48.0912 166.809Z" fill="#010101"/>
<path d="M49.8735 166.875L50.0538 166.92L50.189 167.055L50.2341 167.281V167.574L50.0989 168.678L49.851 168.655L50.0087 167.551L49.9637 167.236L49.7834 167.101L49.6707 167.123L49.558 167.213L49.4904 167.326L49.4453 167.529L49.2876 168.633L49.0622 168.61L49.1975 167.506L49.1749 167.191L48.9946 167.055L48.8144 167.123L48.6566 167.281L48.4989 168.588H48.251L48.4763 166.83H48.6341L48.6792 166.898V167.078L48.8594 166.898L49.1073 166.83L49.3101 166.943L49.3777 167.213L49.4904 167.033L49.6031 166.943L49.7383 166.875H49.8735Z" fill="#010101"/>
<path d="M37.9748 176.135C37.9748 176.135 37.9747 176.315 37.8621 176.428C37.2536 176.698 36.6677 176.991 36.0592 177.306C36.1919 177.398 36.2974 177.524 36.3648 177.671C36.4322 177.817 36.459 177.98 36.4424 178.14L36.3071 178.591L36.0142 178.996L35.6536 179.379L35.2705 179.672L34.9325 179.92C34.5001 180.264 33.9736 180.468 33.4226 180.506H33.1297L32.8818 180.325V180.033V179.717L33.0621 179.357L33.2649 179.041L33.5578 178.726L33.8283 178.478L34.1663 178.23L34.4818 178.027L34.7973 177.825L35.1128 177.644L35.5635 177.374L35.3381 177.261H35.0677H34.8198H34.5494H34.279H34.0086H33.7607H33.4677H33.1973L32.5437 177.126L31.9804 177.014L31.3043 176.811L30.7409 176.563C30.5 176.467 30.3039 176.284 30.1912 176.05C30.0786 175.817 30.0576 175.55 30.1325 175.301V175.121V174.941L30.2677 174.761L30.4029 174.625L30.5607 174.49L30.6959 174.378C31.0587 174.045 31.4426 173.737 31.8451 173.454C32.5836 172.949 33.3872 172.548 34.2339 172.26H34.3916H34.5719H34.7747H34.9776H35.3607H35.5184H35.6536V172.44V172.688V172.891L35.5184 173.138L35.3381 173.319L35.1804 173.476L35.0001 173.611C35.2 173.468 35.3751 173.293 35.5184 173.093V172.778L35.4057 172.598H35.2029H34.9325C34.3948 172.694 33.872 172.861 33.3776 173.093C32.2819 173.577 31.2937 174.274 30.4705 175.144C29.9071 175.729 30.0198 176.247 30.8536 176.653C31.3589 176.877 31.8882 177.044 32.4311 177.149L33.0846 177.284H33.7607L34.3466 177.419L35.0001 177.644L35.6536 177.915C36.3789 177.261 37.155 176.666 37.9748 176.135ZM36.1494 178.388C36.2127 178.241 36.2176 178.075 36.1632 177.924C36.1088 177.774 35.9991 177.65 35.8564 177.577L34.8874 178.185L34.5945 178.365L34.2564 178.591L33.9409 178.816L33.648 179.086L33.4001 179.402L33.2423 179.672L33.1297 179.965V180.055L33.355 180.213H33.8733C34.2366 180.055 34.5776 179.851 34.8874 179.604C35.3595 179.3 35.7471 178.882 36.0142 178.388H36.1494Z" fill="#010101"/>
<path d="M38.2647 175.709V175.866C38.0333 176.364 37.8885 176.897 37.8366 177.444H37.7239C37.7677 177.116 37.8355 176.792 37.9267 176.475C37.9267 176.475 37.9267 176.272 38.0394 176.182L38.1746 175.799L38.2647 175.709Z" fill="#010101"/>
<path d="M41.1093 175.933V176.158C40.6361 176.496 40.298 176.767 40.0502 176.969V177.105C40.1413 177.702 40.0872 178.313 39.8924 178.885C39.7713 179.159 39.6281 179.422 39.4642 179.673C39.2842 179.938 39.0723 180.18 38.8333 180.394C38.6472 180.591 38.4148 180.738 38.1572 180.822H37.7515L37.5713 180.529V180.056L37.6839 179.56L37.8868 179.11C38.1313 178.704 38.4103 178.319 38.7206 177.961C39.0611 177.58 39.4302 177.226 39.8248 176.902C39.8248 176.451 39.6671 176.203 39.5769 176.203H39.4417L39.2389 176.429L39.1262 176.586H38.9234C38.7431 176.429 38.7882 176.181 38.9234 175.888C39.0868 175.642 39.3022 175.434 39.5544 175.28H39.8924L39.4417 175.505L39.0812 175.978V176.113L39.4868 175.73H39.6445C39.8023 175.73 39.9149 176.091 39.9825 176.564L41.1093 175.933ZM39.329 179.47C39.7475 178.799 39.9151 178.001 39.8023 177.217L39.1938 177.758C38.8259 178.122 38.4868 178.513 38.1797 178.93L38.022 179.2L37.8417 179.47L37.7065 179.831V180.169V180.484L37.9769 180.709L38.3375 180.574L38.7431 180.191L39.1037 179.786L39.3516 179.448L39.329 179.47Z" fill="#010101"/>
<path d="M38.4658 174.985L38.5107 175.052L38.4434 175.209L38.0847 175.456H37.995L37.9502 175.366L38.0399 175.232L38.3986 174.985H38.4658Z" fill="#010101"/>
<path d="M44.9397 176.066L45.3003 176.224V176.404H45.1651C45.0736 176.318 44.9528 176.27 44.827 176.269C44.6825 176.279 44.543 176.326 44.4214 176.404L44.2636 176.54L44.1284 176.697V176.878V177.08H44.2636H44.4665L44.6468 176.945L44.8721 176.765L45.0299 176.63C45.0299 176.9 45.0299 177.035 45.2101 177.035C45.4066 177.007 45.5927 176.93 45.751 176.81C46.0141 176.627 46.2627 176.423 46.4946 176.202C46.4946 176.314 46.4946 176.427 46.4946 176.562L46.1341 176.855L45.7284 177.103L45.3679 177.238H45.0749V176.878H44.9622H44.8496H44.7144H44.5791H44.3538L44.2186 176.697V176.449V176.292L44.4439 175.909H44.6468L44.8045 175.796L44.9397 176.066Z" fill="#010101"/>
<path d="M43.0913 177.147C43.4857 176.987 43.8342 176.731 44.1054 176.403L43.88 176.786V176.944L43.6772 177.124L43.204 177.417H42.7532L42.4152 177.147L42.2349 176.764L42.0772 176.426H41.9645L41.8068 176.741L41.5364 177.192L41.311 177.372V177.26V176.922V176.764V176.606C41.311 176.471 41.311 176.291 41.4913 176.065V175.84C41.5009 175.743 41.5009 175.644 41.4913 175.547H41.604L41.4688 175.975L41.311 176.448L41.1758 176.944L41.311 176.764L41.4688 176.561V176.403V176.291H41.604H41.7166V176.471V176.651V176.786V176.944L41.9871 177.26L43.0913 177.147Z" fill="#010101"/>
<path d="M48.4763 177.328L49.0171 176.99L49.4903 176.449C49.4202 176.626 49.36 176.807 49.3101 176.99C49.2164 177.106 49.1107 177.212 48.9946 177.306C48.7976 177.481 48.5557 177.598 48.296 177.644H48.1157H48.003V177.486V177.125C47.6875 177.666 47.4171 177.959 47.2593 177.937L47.1016 177.734V177.328V176.923V176.585C46.9993 176.819 46.9456 177.072 46.9438 177.328L47.1016 177.463C47.3537 177.235 47.5469 176.949 47.665 176.63V177.193H47.9129L48.4763 177.328Z" fill="#010101"/>
<path d="M53.3659 176.652C52.7124 177.373 52.1715 177.711 51.7434 177.688H51.4955L51.1575 177.373V176.877L51.3603 176.471L51.7434 176.201C51.7434 176.201 51.856 176.201 51.9011 176.201C51.9462 176.201 52.0363 176.201 52.0138 176.426L51.7209 176.854L51.3152 176.99L51.4504 177.395H51.8561C52.1021 177.342 52.3331 177.234 52.5321 177.08C52.782 176.889 53.0156 176.678 53.2307 176.449L53.3659 176.652ZM51.6082 176.652L51.4504 176.854L51.6983 176.719V176.539H51.5406L51.6082 176.652Z" fill="#010101"/>
<path d="M49.6736 175.998C49.6664 176.134 49.6664 176.269 49.6736 176.404C49.6736 176.517 49.6736 176.607 49.6736 176.72L50.0342 176.201H50.1694C50.2185 176.32 50.2991 176.422 50.4024 176.497C50.5058 176.573 50.6278 176.619 50.7553 176.629C50.9972 176.636 51.2319 176.547 51.4089 176.382L51.206 176.787C51.0547 176.873 50.8842 176.92 50.7103 176.922C50.5678 176.913 50.4297 176.869 50.308 176.795C50.1863 176.72 50.0846 176.617 50.0117 176.494C49.8735 176.686 49.7528 176.89 49.6511 177.103C49.6511 177.373 49.4708 177.621 49.3582 177.869C49.3582 177.553 49.4933 177.215 49.5835 176.855C49.6334 176.671 49.6936 176.491 49.7638 176.314C49.7541 176.194 49.7541 176.073 49.7638 175.953L49.6736 175.998Z" fill="#010101"/>
<path d="M49.6262 176.583L49.6466 176.562L49.6262 176.583Z" fill="#010101"/>
<path d="M47.5062 173.723V173.881C47.3497 174.256 47.2143 174.64 47.1005 175.03L49.8273 174.67C48.9484 174.67 48.0019 174.872 47.0329 175.03C46.5087 176.691 46.0947 178.384 45.7935 180.099C45.9921 178.861 46.263 177.634 46.6048 176.427C46.6048 176.292 46.6048 176.179 46.6048 176.067C46.6048 175.954 46.8076 175.413 46.8977 175.098L45.5681 175.323V175.143L46.9653 174.895L47.416 173.588L47.5062 173.723Z" fill="#010101"/>
<path d="M93.4573 169.173L93.2095 170.931H93.0743L93.0292 170.841V170.66L92.8038 170.863L92.5559 170.908L92.3531 170.863L92.2405 170.728L92.1729 170.525V170.255L92.3306 169.105L92.5559 169.128L92.3982 170.255L92.4433 170.548L92.6461 170.683L92.8489 170.615L93.0292 170.458L93.2095 169.173H93.4573Z" fill="#010101"/>
<path d="M77.1879 178.454C76.9151 178.385 76.6507 178.287 76.3991 178.161C76.3245 178.173 76.2484 178.173 76.1738 178.161C76.14 177.643 76.14 177.124 76.1738 176.606C76.4847 176.283 76.8241 175.989 77.1879 175.727V177.981V178.319V178.454Z" fill="#ED3765"/>
<path d="M90.0721 170.548H89.8918V170.39V169.557C90.0751 169.839 90.2407 170.132 90.3876 170.435L90.0721 170.548Z" fill="#ED3765"/>
<path d="M81.424 167.822L81.2888 168.723L81.1311 170.008L81.9649 170.053L81.9198 170.346L80.8381 170.278L81.0184 168.926L81.1536 167.799L81.424 167.822Z" fill="#010101"/>
<path d="M84.4861 168.678L84.5762 168.7L84.6438 168.768L84.5987 168.971L84.5537 169.016L84.4861 168.993H84.3959L84.1706 169.061L83.9903 169.331L83.8551 170.435H83.6072L83.8325 168.678H83.9678L84.0128 168.7L84.0354 168.79L84.0128 169.038L84.2156 168.768L84.4861 168.678Z" fill="#010101"/>
<path d="M85.8859 169.647H84.9845V169.94V170.143H85.1422H85.3225H85.4352H85.3225H85.1873H85.0296H85.3H85.0521L84.8718 169.962V169.669V169.241V168.926L85.0296 168.633L85.2549 168.475H85.5254H85.7507L85.9085 168.655V168.903V169.241L85.8859 169.647ZM84.9845 169.444H85.7056V169.264V169.083H85.5479H85.2549L85.0972 169.444H84.9845Z" fill="#010101"/>
<path d="M88.9273 169.985L89.0625 168.948H89.3104L89.1301 170.301L89.085 170.706H88.8372L88.9273 169.985Z" fill="#010101"/>
<path d="M91.6094 169.06L91.8347 169.105L92.015 169.285L91.9474 169.375L91.8798 169.42L91.8347 169.398L91.7671 169.353L91.6995 169.308L91.5643 169.285H91.4742L91.384 169.353L91.3164 169.42L91.2939 169.511V169.646L91.3615 169.713L91.4742 169.803L91.5868 169.849L91.7221 169.916L91.8122 170.006L91.8798 170.141V170.322L91.8347 170.547L91.6995 170.705L91.5192 170.818L91.2939 170.863L91.0685 170.795L90.8657 170.615L90.9558 170.502L90.9784 170.48L91.0235 170.457L91.0685 170.48L91.1361 170.547L91.2037 170.615L91.3389 170.637L91.4516 170.615L91.5643 170.547L91.6319 170.457L91.6545 170.367L91.6319 170.232L91.5643 170.164L91.4742 170.096L91.3389 170.029L91.2263 169.961L91.1136 169.871L91.0685 169.736L91.046 169.533L91.1136 169.353L91.2263 169.172L91.4066 169.082L91.6094 169.06Z" fill="#010101"/>
<path d="M78.4042 182.306C78.5258 182.501 78.6607 182.689 78.8077 182.866H78.5387L78.3369 182.709L78.4042 182.306Z" fill="#ED3765"/>
<path d="M80.947 174.198L77.9272 175.032L78.8737 174.559C79.3668 174.318 79.8897 174.143 80.4287 174.04H80.7892L80.947 174.198Z" fill="#ED3765"/>
<path d="M81.3993 179.447C82.0123 179.082 82.6527 178.766 83.3147 178.5C83.3147 178.5 83.3148 178.703 83.2021 178.793L82.4809 179.131C82.1112 179.301 81.7502 179.489 81.3993 179.694C81.5338 179.779 81.6413 179.9 81.7092 180.044C81.7771 180.188 81.8025 180.348 81.7824 180.506L81.6246 180.956L81.3542 181.362L80.9936 181.745L80.6105 182.06L80.2725 182.308C79.9059 182.556 79.503 182.746 79.0781 182.871H78.7401C78.6511 182.891 78.5587 182.891 78.4697 182.871L78.2218 182.691V182.398V182.083V181.925V181.745L78.4021 181.429L78.695 181.136L78.9654 180.889L79.3035 180.641L79.619 180.438L79.9344 180.235L80.2499 180.055L80.7007 179.785H80.5204L80.2499 179.672H80.002H79.7091H79.4612H79.1683H78.9204H78.65H78.5373L77.8838 179.537L77.3204 179.402H77.1851L76.6218 179.221L76.1711 179.019C75.9319 178.927 75.7362 178.748 75.6233 178.519C75.5105 178.289 75.4887 178.025 75.5626 177.779V177.599L75.6753 177.396L75.8105 177.239L75.9457 177.104L76.0809 176.968H76.1936C76.5107 176.659 76.8496 176.373 77.2077 176.112H77.3204C78.0698 175.619 78.8803 175.225 79.7316 174.941H79.8894H80.0697H80.2725H80.4753H80.7908H80.9711H81.1288L81.2641 175.076V175.211V175.481V175.707L81.1288 175.932L80.9486 176.112L80.7683 176.292L80.6105 176.428C80.8124 176.285 80.9815 176.1 81.1063 175.887V175.572H80.9035H80.633C80.0941 175.675 79.5712 175.849 79.0781 176.09L78.1316 176.563L77.3654 177.081C77.0017 177.343 76.6623 177.637 76.3513 177.96C76.2804 178.008 76.2192 178.069 76.1711 178.14C75.6527 178.658 75.6978 179.131 76.3288 179.514C76.4034 179.526 76.4795 179.526 76.5542 179.514C76.8057 179.64 77.0702 179.738 77.3429 179.807L78.1316 180.01L78.7626 180.145C78.9992 180.168 79.2331 180.214 79.4612 180.28L80.0471 180.415L80.7007 180.641C80.8953 180.698 81.0839 180.773 81.2641 180.866L81.3993 179.447ZM81.3993 180.573C81.4307 180.438 81.4168 180.297 81.3598 180.171C81.3027 180.044 81.2058 179.94 81.0838 179.875C80.7232 180.077 80.4302 180.28 80.1147 180.483L79.8218 180.641L79.4837 180.866L79.1683 181.091L78.8978 181.339L78.6725 181.632L78.4922 181.925V182.083V182.353L78.695 182.511H79.2359C80.1115 182.123 80.8553 181.489 81.3767 180.686L81.3993 180.573Z" fill="#010101"/>
<path d="M90.2996 178.431L90.6601 178.588V178.769H90.5249C90.427 178.689 90.3108 178.635 90.1869 178.611C90.0411 178.614 89.8997 178.661 89.7813 178.746H89.646L89.4883 178.904V179.107V179.309H89.6686L89.8714 179.174L90.0742 178.994L90.2545 178.859V178.994C90.2287 179.098 90.2287 179.206 90.2545 179.309C90.2794 179.32 90.3063 179.325 90.3334 179.325C90.3604 179.325 90.3873 179.32 90.4122 179.309C90.6039 179.307 90.7882 179.235 90.9305 179.107C91.205 178.929 91.4616 178.725 91.6967 178.498V178.859L91.3362 179.152L90.908 179.4H90.57H90.2996L90.1869 179.039H90.0517H89.9165H89.6911L89.5559 178.904V178.543V178.386L89.7813 178.002H89.9615H90.1193H90.5474L90.2996 178.431Z" fill="#010101"/>
<path d="M91.3135 174.039C91.4203 175.208 91.3366 176.387 91.0656 177.53V177.801V178.003C90.9706 178.529 90.8195 179.042 90.6149 179.535C90.5891 179.432 90.5891 179.323 90.6149 179.22V179.085L90.4346 179.22L90.2318 179.4L90.029 179.535H89.8487L90.1191 178.837C90.241 178.739 90.3912 178.684 90.5473 178.679C90.6712 178.703 90.7873 178.757 90.8853 178.837H91.0205V178.657L90.66 178.499H89.8036V178.274L87.5501 178.904V178.747V178.611H87.4149H87.2797L87.1445 178.769H86.9867C86.9666 178.688 86.9666 178.603 86.9867 178.521L87.1445 178.026L87.2571 177.598L90.7726 176.607V176.246V175.953V173.183V172.957V172.8V172.62V172.484V172.259V172.034L90.66 171.741L82.074 174.129V173.994L81.9388 173.858H81.781H81.6007H81.3979H81.1951H80.9923H80.812H80.6543C79.803 174.142 78.9924 174.536 78.243 175.03H78.1303C77.7723 175.291 77.4333 175.577 77.1162 175.886C77.1162 175.413 77.2514 174.917 77.3416 174.444V174.039C77.6833 172.312 78.464 170.702 79.6087 169.365C80.7533 168.027 82.2232 167.007 83.8768 166.402C84.5076 166.229 85.1611 166.153 85.8148 166.177C87.3784 166.273 88.8425 166.976 89.8937 168.137V168.272L90.3219 168.813L90.029 171.065H90.2769V170.277L90.3895 170.457H90.6149H90.8628H91.0205V170.637C91.4054 171.525 91.6487 172.467 91.7416 173.43L91.3135 174.039ZM77.5669 174.039L89.398 170.727L89.1275 170.299L89.3078 168.948H89.0599L88.9247 169.984C88.4558 169.328 87.8462 168.786 87.1404 168.396C86.4347 168.006 85.6507 167.779 84.8458 167.731C84.2679 167.711 83.6903 167.779 83.1331 167.934C82.4775 168.125 81.8544 168.413 81.2853 168.79L81.4205 167.889H81.1501L81.0148 169.015C79.3473 170.307 78.1387 172.099 77.5669 174.129V174.039Z" fill="#ED3765"/>
<path d="M83.429 169.151V169.557V169.895L83.2713 170.188L83.0234 170.346H82.7529H82.4825L82.3022 170.165V169.872V169.512V169.129L82.46 168.836L82.6853 168.678H82.9783H83.2262L83.4065 168.858L83.429 169.151ZM83.0234 170.008L83.1811 169.534V169.016L82.9107 168.836H82.7079H82.5727V169.039V169.332V169.602V169.827H82.7529L83.0684 169.67L83.0234 170.008Z" fill="#010101"/>
<path d="M79.8892 180.594L80.1821 180.437C80.4976 180.234 80.7906 180.031 81.1512 179.828C81.2732 179.894 81.3701 179.998 81.4272 180.124C81.4842 180.25 81.4981 180.392 81.4667 180.527L78.9202 181.248L79.1906 181L79.5061 180.775L79.8892 180.594Z" fill="#ED3765"/>
<path d="M83.5396 178.049V178.185C83.4434 178.397 83.3606 178.615 83.2917 178.838C83.2026 179.141 83.1348 179.45 83.0889 179.762C83.1175 179.48 83.1703 179.201 83.2466 178.928C83.254 178.876 83.254 178.823 83.2466 178.77C83.2466 178.77 83.2466 178.568 83.3593 178.477L83.4945 178.094L83.5396 178.049Z" fill="#010101"/>
<path d="M84.4171 178.723L84.034 179.129L83.9438 178.971L84.1917 178.656L84.5974 178.543L84.5748 178.566L84.5072 178.633L84.4171 178.723Z" fill="#ED3765"/>
<path d="M83.1577 178.949C83.0814 179.222 83.0286 179.501 82.9999 179.783C83.0459 179.471 83.1137 179.162 83.2028 178.859L83.6534 178.724C83.4281 179.017 83.4056 179.265 83.6534 179.4L83.7887 179.242L83.9915 179.039H84.1267C84.1267 179.039 84.2844 179.287 84.3746 179.761L83.9915 180.076L81.0393 180.91C81.0595 180.752 81.0341 180.592 80.9662 180.448C80.8983 180.305 80.7908 180.183 80.6562 180.099C81.0072 179.893 81.3682 179.705 81.7379 179.535L83.1577 178.949Z" fill="#ED3765"/>
<path d="M86.1998 179.265L85.3435 179.513C85.6139 179.31 85.9519 179.017 86.4252 178.679C86.3544 178.863 86.2942 179.051 86.2449 179.242L86.1998 179.265Z" fill="#ED3765"/>
<path d="M86.4478 178.295V178.52V178.633C85.9745 178.971 85.6365 179.264 85.3661 179.467V179.579C85.4616 180.178 85.3995 180.792 85.1858 181.359C85.0834 181.649 84.9391 181.922 84.7576 182.17C84.5796 182.43 84.3758 182.672 84.1492 182.891C83.9557 183.079 83.7255 183.225 83.4731 183.319H83.0675L82.8872 183.004V182.553L82.9999 182.058L83.2027 181.607C83.4342 181.192 83.714 180.807 84.0365 180.458C84.2619 180.21 84.4872 179.962 84.7576 179.714L85.1407 179.399C85.1407 178.926 84.9605 178.678 84.8929 178.678H84.7576L84.5548 178.881L84.4196 179.039C84.2619 178.903 84.2844 178.656 84.4196 178.363C84.5903 178.129 84.8046 177.93 85.0506 177.777H85.3886L84.9379 177.98L84.8252 178.137L84.5774 178.453V178.611L84.9605 178.205H85.1182C85.2798 178.436 85.3664 178.711 85.3661 178.994L86.4478 178.295ZM84.6675 181.855C85.1033 181.19 85.2797 180.388 85.1633 179.602L84.5548 180.12C84.1795 180.485 83.8399 180.885 83.5408 181.314L83.383 181.562L83.2027 181.855L83.045 182.305V182.643V182.959L83.3379 183.207L83.6985 183.049L84.1041 182.688L84.4647 182.26L84.69 181.945L84.6675 181.855Z" fill="#010101"/>
<path d="M86.4888 178.297L85.317 179.221C85.3172 178.939 85.2307 178.663 85.0691 178.432L86.6691 177.981C86.6691 177.981 86.5339 178.139 86.4888 178.297Z" fill="#ED3765"/>
<path d="M89.3989 168.249L89.4213 168.339V168.429L89.3989 168.496L89.354 168.563L89.2868 168.608L89.2643 168.63H89.2195L89.1747 168.608L89.1074 168.563L89.085 168.474V168.429V168.406L89.1074 168.317L89.1523 168.249L89.2195 168.204L89.2868 168.182L89.354 168.204L89.3989 168.249Z" fill="#010101"/>
<path d="M87.3224 178.791L87.3673 178.858L87.4121 178.926L86.874 179.083L86.9413 179.015L86.9861 178.881L87.0534 178.814L87.1206 178.746L87.1879 178.724L87.2552 178.746L87.3224 178.791Z" fill="#ED3765"/>
<path d="M88.4513 179.536C88.8421 179.359 89.1886 179.098 89.4654 178.77L89.24 179.153V179.311L89.0372 179.514L88.564 179.807H88.1133L87.7753 179.514L87.595 179.153L87.4598 178.86H87.3471V178.995L87.1893 179.288L86.9189 179.739L86.6935 179.919V179.784V179.469V179.288V179.153C86.7429 178.962 86.8031 178.774 86.8738 178.59V178.477V178.252C86.8738 178.094 86.8738 178.004 86.8738 177.981L86.7611 178.409L86.6034 178.905C86.5834 178.987 86.5834 179.072 86.6034 179.153V179.401V179.221L86.7386 179.063L86.8738 178.905H87.009H87.1443V179.04V179.198V179.356V179.491L87.3921 179.829L88.4513 179.536Z" fill="#010101"/>
<path d="M90.2521 179.355L90.3648 179.715C89.4897 182.028 87.8094 183.948 85.6324 185.122H85.5197L85.1366 185.303L84.8211 185.415H84.4606C82.9841 185.833 81.4044 185.677 80.0379 184.979C78.6714 184.281 77.619 183.093 77.0915 181.653L76.9338 181.315C76.5698 180.412 76.3273 179.465 76.2126 178.499V178.206L76.6633 178.409L77.2267 178.589V178.814V178.949V179.152V179.287V179.49V179.625V179.85V180.166L80.3366 179.31H80.5169L80.0662 179.58L79.7507 179.76L79.4352 179.963L79.1197 180.166L78.7817 180.414L78.5113 180.662L78.2183 180.954L77.7225 181.135L77.9253 181.473V181.63V181.946V182.239L78.1732 182.419C78.2622 182.439 78.3547 182.439 78.4437 182.419H78.7817C79.7133 183.43 80.9938 184.05 82.3648 184.154C82.9427 184.174 83.5203 184.106 84.0775 183.951C85.1739 183.59 86.1819 183.002 87.0361 182.225C87.8902 181.449 88.5714 180.502 89.0352 179.445H89.1704H89.2831H89.4183H89.5535L90.2521 179.355Z" fill="#ED3765"/>
<path d="M94.0628 179.558L94.3782 179.377L94.8289 178.814C94.7659 178.999 94.7133 179.187 94.6712 179.377C94.5718 179.488 94.4664 179.593 94.3557 179.693C94.2311 179.792 94.0948 179.875 93.9501 179.941C93.846 179.962 93.7387 179.962 93.6346 179.941H93.4768V179.806V179.445C93.1614 179.986 92.9135 180.256 92.7332 180.256L92.5754 180.053V179.648V179.242L92.6881 178.904C92.5792 179.138 92.5179 179.39 92.5078 179.648L92.6881 179.783C92.9364 179.547 93.1222 179.252 93.229 178.927H93.3416V179.468H93.4768L94.0628 179.558Z" fill="#010101"/>
<path d="M92.8692 176.09V176.225L92.4635 177.396L94.5368 177.103H95.2128C94.9805 177.081 94.7466 177.081 94.5142 177.103C93.8382 177.103 93.1396 177.261 92.3959 177.396C91.8765 179.057 91.47 180.75 91.179 182.466C91.4044 181.226 91.6748 180.01 92.0128 178.793V178.433C92.0128 178.117 92.2156 177.802 92.3058 177.464L91.0212 177.689V177.802L92.3283 177.577C92.486 177.081 92.6438 176.653 92.779 176.27L92.8692 176.09Z" fill="#010101"/>
<path d="M95.033 178.363L94.8977 178.746C94.8977 178.746 94.8977 178.971 94.8977 179.084L95.2132 178.633H95.3485C95.4019 178.751 95.4832 178.853 95.5854 178.932C95.6875 179.01 95.8073 179.063 95.9344 179.084C96.1732 179.096 96.4074 179.016 96.5879 178.859L96.3851 179.242C96.226 179.329 96.048 179.375 95.8668 179.377C95.727 179.358 95.5926 179.31 95.4723 179.237C95.352 179.163 95.2484 179.065 95.1682 178.949C95.0978 179.032 95.0373 179.123 94.9879 179.219C94.9879 179.219 94.9879 179.445 94.8076 179.557C94.6273 179.67 94.6048 180.053 94.5146 180.324V180.188C94.5146 179.895 94.6499 179.557 94.74 179.197C94.7821 179.006 94.8347 178.818 94.8977 178.633C94.8977 178.633 94.8978 178.408 95.0104 178.273L95.033 178.363Z" fill="#010101"/>
<path d="M95.686 176.181C95.594 177.078 95.4358 177.966 95.2127 178.84L94.8972 179.29C94.8972 179.29 94.8972 179.065 94.8972 178.952L95.0325 178.547C95.0325 178.682 95.0325 178.795 94.9198 178.907L94.4691 179.47L94.1536 179.651C94.3761 178.912 94.5492 178.159 94.6719 177.398C94.9042 177.376 95.1382 177.376 95.3705 177.398H94.6944C94.6944 177.082 94.6944 176.744 94.8071 176.429C94.8968 175.387 94.8968 174.339 94.8071 173.297C94.7442 172.609 94.6464 171.925 94.5141 171.247L94.6719 170.143V169.963H94.8071L94.9423 170.526V171.427H95.1677V171.179C95.302 171.834 95.3923 172.496 95.4381 173.162C95.6005 174.16 95.6834 175.17 95.686 176.181Z" fill="#ED3765"/>
<path d="M94.9883 178.948L95.0086 178.928L94.9883 178.948Z" fill="#010101"/>
<path d="M98.8175 179.017C98.1639 179.738 97.6231 180.076 97.1949 180.053H96.9921L96.6541 179.738V179.265L96.8569 178.882L97.2174 178.611H97.3977C97.3977 178.611 97.3977 178.611 97.3977 178.859L97.1273 179.31H96.7217L96.8343 179.738H97.2625C97.506 179.689 97.7365 179.589 97.9386 179.445C98.1833 179.24 98.4165 179.022 98.6372 178.791L98.8175 179.017ZM97.0372 179.017L96.8794 179.242L97.1498 179.107V178.904L96.9695 179.017H97.0372Z" fill="#010101"/>
<path d="M95.2356 169.241L95.4159 169.308L95.5285 169.421L95.5962 169.646L95.5736 169.939L95.4609 170.796L95.4384 171.043H95.213L95.3257 170.142L95.3708 169.917L95.3257 169.601L95.168 169.511L95.1454 169.488H95.0102L94.9201 169.601L94.8525 169.714L94.7849 169.894L94.6271 170.998H94.5144H94.4018L94.4468 170.683L94.5595 169.894L94.5144 169.579L94.3567 169.443L94.1764 169.511L94.1539 169.534L94.0187 169.669L93.8609 170.976L93.613 170.953L93.8384 169.195H93.9961L94.0412 169.286V169.443L94.0863 169.398L94.2215 169.263L94.4468 169.195L94.6496 169.308L94.7398 169.579L94.8525 169.421L94.9651 169.331L95.1004 169.263L95.2356 169.241Z" fill="#010101"/>
<path d="M94.1793 169.511H94.3596L94.5173 169.646V169.962L94.4046 170.75L94.2694 170.164C94.2694 169.962 94.1567 169.781 94.0891 169.601L94.1793 169.511Z" fill="#ED3765"/>
<path d="M87.7109 168.858L87.8912 168.903L88.0264 169.038L88.094 169.264L88.0715 169.557L87.9137 170.661L87.6884 170.638L87.8461 169.534L87.8011 169.219L87.6208 169.083L87.5081 169.106L87.3954 169.196L87.3278 169.309L87.2602 169.511L87.125 170.616L86.8997 170.593L87.0349 169.489L87.0123 169.173L86.832 169.038L86.6518 169.106L86.494 169.264L86.3363 170.571L86.0884 170.548L86.3137 168.79L86.4715 168.813L86.5165 168.88V169.061L86.7194 168.858L86.9222 168.813L87.1475 168.926L87.2377 169.196L87.3278 169.016L87.463 168.926L87.5757 168.858H87.7109Z" fill="#010101"/>
<path d="M90.8187 169.511V169.917V170.277L90.6835 170.548H90.5257H90.2778H90.0525L89.9398 170.368V171.156H89.6919L89.9849 168.903V168.7H89.8046V168.925L90.0525 168.7H90.3229H90.5257L90.6609 168.88L90.8187 169.511ZM90.3905 170.368L90.5482 169.894V169.601V169.399H90.3905H90.1877L90.0074 169.579V170.413V170.57H90.1877L90.4806 170.413L90.3905 170.368Z" fill="#010101"/>
<path d="M83.8306 177.373L83.8754 177.418L83.8082 177.597L83.4495 177.844L83.3598 177.822L83.3149 177.754L83.4046 177.62L83.7634 177.373H83.8306Z" fill="#010101"/>
<path d="M94.6303 180.414C94.6303 180.143 94.8106 179.918 94.9233 179.648C95.0359 179.377 94.9233 179.4 95.1035 179.31C94.5011 181.578 93.5016 183.721 92.1514 185.64C90.395 188.207 87.8343 190.116 84.8725 191.068C83.8629 191.358 82.8109 191.473 81.7626 191.406C80.0914 191.324 78.4762 190.778 77.0978 189.83C74.6995 188.104 73.0097 185.566 72.3429 182.689C72.0476 181.637 71.8588 180.557 71.7795 179.468C71.7008 178.343 71.7008 177.214 71.7795 176.089C72.1365 172.682 73.3625 169.425 75.3401 166.628C77.0766 164.051 79.6341 162.138 82.5964 161.199C83.6073 160.914 84.6571 160.793 85.7063 160.839C87.3822 160.933 89.0016 161.478 90.3936 162.415C92.6744 164.07 94.3205 166.455 95.0585 169.173H94.9233L94.8106 169.331V169.061H94.6078H94.3824L94.2472 169.196C93.7541 167.243 92.6725 165.489 91.1488 164.171C89.625 162.854 87.733 162.036 85.7289 161.83C84.7704 161.791 83.8118 161.905 82.8894 162.168C77.7964 163.587 73.5823 169.376 72.9288 175.886C72.8388 176.928 72.8388 177.975 72.9288 179.017C72.9894 180.015 73.1556 181.005 73.4246 181.968C73.8198 184.068 74.8817 185.984 76.4528 187.433C78.0238 188.881 80.0202 189.785 82.1457 190.01C83.1034 190.07 84.0642 189.963 84.9852 189.694C87.2026 188.895 89.1943 187.572 90.7911 185.839C92.3878 184.106 93.5425 182.013 94.157 179.738C94.3018 179.672 94.438 179.589 94.5627 179.49C94.6734 179.391 94.7787 179.285 94.8782 179.175C94.8782 179.535 94.6979 179.873 94.6528 180.166V180.301L94.6303 180.414Z" fill="#ED3765"/>
<path d="M73.0629 56.3616C73.382 56.3801 73.6951 56.4565 73.9868 56.5869C74.2753 56.7048 74.5363 56.8813 74.7531 57.1051L74.1671 58.2767C73.951 58.0788 73.7083 57.912 73.446 57.781C73.2468 57.6827 73.0342 57.6144 72.815 57.5783C72.6981 57.5388 72.5714 57.5388 72.4545 57.5783C72.4066 57.6108 72.3672 57.6544 72.3398 57.7054C72.3123 57.7564 72.2975 57.8132 72.2967 57.8711C72.2606 57.9732 72.2606 58.0845 72.2967 58.1866C72.3622 58.2785 72.4468 58.3554 72.5446 58.4119L72.9953 58.6372C73.2453 58.7458 73.4864 58.8739 73.7164 59.0202C73.9127 59.166 74.0679 59.36 74.1671 59.5834C74.2537 59.8929 74.2537 60.2202 74.1671 60.5297C74.127 60.87 74.0031 61.1952 73.8066 61.4759C73.6275 61.7364 73.3771 61.9398 73.0854 62.0617C72.7849 62.1816 72.4621 62.2354 72.139 62.2194C71.7618 62.199 71.3932 62.0992 71.0572 61.9265C70.7277 61.7346 70.4372 61.4823 70.2009 61.183L70.8094 60.034C71.0037 60.3039 71.2486 60.5334 71.5305 60.7099C71.7675 60.8628 72.0383 60.9556 72.3193 60.9803C72.4576 61.0302 72.609 61.0302 72.7474 60.9803C72.8063 60.9411 72.8539 60.8872 72.8855 60.824C72.9171 60.7608 72.9317 60.6904 72.9277 60.6198C72.9506 60.5664 72.9625 60.5089 72.9625 60.4508C72.9625 60.3927 72.9506 60.3352 72.9277 60.2818C72.8674 60.1908 72.781 60.1201 72.6798 60.0791L72.2291 59.8538C71.98 59.7519 71.739 59.6314 71.508 59.4933C71.3254 59.3485 71.1789 59.1634 71.0798 58.9526C70.9928 58.6508 70.9928 58.3306 71.0798 58.0289C71.1167 57.6983 71.2326 57.3815 71.4178 57.1051C71.5903 56.8528 71.8332 56.6569 72.1164 56.5419C72.4086 56.3937 72.7367 56.3312 73.0629 56.3616Z" fill="url(#paint7_linear)"/>
<path d="M80.5213 56.8587L79.7551 62.6039L78.741 62.5588L79.2143 58.9315L77.6818 61.928L76.9156 61.8829L76.172 58.7738L75.6987 62.4011L74.6621 62.3335L75.4283 56.6109L76.6903 56.656L77.5241 60.103L79.2593 56.7911L80.5213 56.8587Z" fill="url(#paint8_linear)"/>
<path d="M88.8356 61.2066L89.5342 63.1216H88.2046L87.7764 61.4995H86.9201L86.7173 63.0765H85.5454L86.3116 57.3314H88.3172C88.5657 57.3347 88.8107 57.3906 89.036 57.4954C89.2613 57.6003 89.4618 57.7517 89.6243 57.9397C89.9086 58.3881 90.0057 58.9301 89.8947 59.4492C89.8681 59.8382 89.7524 60.2159 89.5567 60.5532C89.3808 60.833 89.1313 61.059 88.8356 61.2066ZM88.4975 60.035C88.6492 59.8481 88.7432 59.6211 88.7679 59.3816C88.812 59.2783 88.8347 59.1672 88.8347 59.055C88.8347 58.9427 88.812 58.8316 88.7679 58.7283C88.7101 58.6459 88.6321 58.5799 88.5413 58.5365C88.4505 58.4931 88.35 58.4738 88.2496 58.4804H87.4158L87.168 60.2378H88.0243C88.1306 60.2453 88.2373 60.2312 88.338 60.1964C88.4387 60.1615 88.5313 60.1066 88.6102 60.035" fill="url(#paint9_linear)"/>
<path d="M84.0387 57.0392L85.1429 62.897H83.9035L83.7232 61.8606H81.8077L81.357 62.852H80.1626L82.8217 57.2195L84.0387 57.0392ZM82.3034 60.6666H83.5429L83.2049 58.5938L82.3034 60.599" fill="url(#paint10_linear)"/>
<path d="M94.3139 57.5808L94.1561 58.8424L92.8265 58.7748L92.2181 63.2583L91.0688 63.2132L91.6547 58.7073L90.3477 58.6397L90.5054 57.4005L94.3139 57.5808Z" fill="url(#paint11_linear)"/>
<path d="M71.3718 66.1164C71.5362 66.6562 71.5747 67.2266 71.4844 67.7836C71.4135 68.3722 71.2217 68.9398 70.921 69.4508C70.6498 69.9163 70.2712 70.3103 69.8168 70.5998C69.3907 70.8602 68.8958 70.9859 68.3971 70.9603C67.9164 70.9552 67.4532 70.7795 67.09 70.4647C66.7068 70.1417 66.4316 69.7093 66.3013 69.2255C66.118 68.6742 66.0716 68.0865 66.1661 67.5132C66.2299 66.9301 66.4223 66.3684 66.7295 65.8686C67.0074 65.4143 67.385 65.0291 67.8337 64.7421C68.2657 64.4981 68.7578 64.381 69.2534 64.4041C69.7307 64.4266 70.1884 64.6002 70.5605 64.8998C70.9403 65.2207 71.2215 65.6425 71.3718 66.1164ZM69.8619 68.6848C70.0268 68.3926 70.1339 68.0713 70.1774 67.7385C70.2444 67.4267 70.2444 67.1042 70.1774 66.7923C70.1243 66.5192 69.9909 66.2682 69.7943 66.0713C69.6111 65.9134 69.382 65.8186 69.1408 65.801C68.8925 65.7943 68.6483 65.8652 68.4422 66.0037C68.2025 66.1772 68.0027 66.4 67.8562 66.6571C67.6953 66.9494 67.5956 67.2713 67.5633 67.6034C67.4841 67.9214 67.4841 68.2541 67.5633 68.5721C67.6432 68.833 67.782 69.0719 67.9689 69.2706C68.0506 69.3557 68.1485 69.4235 68.2569 69.4699C68.3653 69.5163 68.482 69.5405 68.5999 69.5409C68.8568 69.5614 69.1125 69.4895 69.321 69.3382C69.554 69.1638 69.7463 68.9409 69.8844 68.6848" fill="url(#paint12_linear)"/>
<path d="M64.4526 64.1571C64.8225 64.1731 65.1811 64.2899 65.4893 64.4951C65.8309 64.7034 66.1109 64.9989 66.3005 65.3512L65.3991 66.4552C65.2847 66.2095 65.115 65.9936 64.9033 65.8243C64.7412 65.6617 64.5242 65.5654 64.2949 65.554C64.038 65.5335 63.7823 65.6054 63.5738 65.7567C63.3413 65.9224 63.1488 66.138 63.0104 66.3876C62.8536 66.711 62.769 67.0646 62.7625 67.424C62.6955 67.7358 62.6955 68.0583 62.7625 68.3702C62.8284 68.6369 62.9691 68.8792 63.1681 69.0686C63.3372 69.2345 63.5624 69.331 63.7991 69.339C64.0345 69.3472 64.2677 69.2928 64.4752 69.1813C64.7181 69.0428 64.9385 68.8681 65.1287 68.6631L65.7372 69.7445C65.4376 70.0784 65.0784 70.3535 64.678 70.5556C64.3257 70.7462 63.929 70.8396 63.5287 70.826C63.0714 70.8053 62.6346 70.6306 62.2892 70.3303C61.9132 70.0011 61.6395 69.5711 61.5005 69.0912C61.3362 68.5359 61.2977 67.9509 61.3878 67.3789C61.4624 66.7982 61.654 66.2387 61.9512 65.7342C62.2232 65.2753 62.602 64.8888 63.0554 64.6077C63.4578 64.3058 63.9496 64.1472 64.4526 64.1571Z" fill="url(#paint13_linear)"/>
<path d="M81.8497 65.1483L81.6694 66.5226L80.2046 66.4551L79.5286 71.4342L78.2666 71.3666L78.9201 66.3875L77.4553 66.3199L77.6356 64.9456L81.8497 65.1483Z" fill="url(#paint14_linear)"/>
<path d="M77.0974 64.9002L76.2636 71.2536L75.1368 71.186L73.4016 67.2883L72.9058 71.0734L71.7114 71.0058L72.5452 64.6749L73.672 64.7199L75.4072 68.6627L75.903 64.8326L77.0974 64.9002Z" fill="url(#paint15_linear)"/>
<path d="M85.3012 69.6768L86.0674 71.9298H84.6026L84.1294 70.1499H83.2055L82.9801 71.8848H81.6956L82.3716 65.1708L84.6252 65.2835C84.8994 65.2755 85.1719 65.3302 85.4219 65.4434C85.6718 65.5566 85.8926 65.7254 86.0674 65.9369C86.3859 66.4303 86.4991 67.0285 86.3829 67.6041C86.3376 68.0382 86.2074 68.4592 85.9998 68.8432C85.8524 69.1827 85.6098 69.4723 85.3012 69.6768ZM84.9181 68.3926C85.0983 68.1947 85.2022 67.9391 85.2111 67.6717C85.2594 67.5576 85.2843 67.435 85.2843 67.3112C85.2843 67.1873 85.2594 67.0647 85.2111 66.9507C85.1484 66.8595 85.0642 66.7851 84.9659 66.734C84.8677 66.6829 84.7584 66.6568 84.6477 66.6578H83.7012L83.4533 68.5954H84.3773C84.4958 68.6039 84.6148 68.5884 84.7271 68.5497C84.8394 68.5109 84.9428 68.4498 85.0308 68.3701" fill="url(#paint16_linear)"/>
<path d="M102.471 74.2948L102.359 75.2638L58.4824 72.9652L58.6176 71.9962L102.471 74.2948Z" fill="url(#paint17_linear)"/>
<path d="M95.0784 65.7567C95.4464 65.7828 95.8024 65.8988 96.115 66.0946C96.451 66.3099 96.7294 66.6037 96.9263 66.9507L96.0249 68.0547C95.9043 67.8128 95.7356 67.5982 95.5291 67.4239C95.3497 67.274 95.1304 67.18 94.8981 67.1535C94.6817 67.1882 94.479 67.2817 94.3122 67.4239C94.0797 67.5895 93.8872 67.8051 93.7488 68.0547C93.5912 68.3484 93.4917 68.6696 93.4558 69.001C93.3863 69.305 93.3863 69.6207 93.4558 69.9247C93.5167 70.1934 93.6583 70.4371 93.8615 70.6231C94.0306 70.789 94.2557 70.8855 94.4925 70.8935C94.7208 70.9033 94.9473 70.8486 95.146 70.7358C95.3961 70.598 95.624 70.4233 95.8221 70.2176L96.4305 71.299C96.1375 71.6398 95.7768 71.916 95.3714 72.1101C95.0191 72.3007 94.6224 72.3941 94.2221 72.3805C93.7566 72.3667 93.3104 72.1915 92.9601 71.8848C92.5987 71.5475 92.3342 71.1196 92.1939 70.6456C92.0295 70.0903 91.991 69.5054 92.0812 68.9334C92.1604 68.3538 92.3518 67.7952 92.6446 67.2887C92.9165 66.8298 93.2954 66.4433 93.7488 66.1622C94.1453 65.9053 94.606 65.7647 95.0784 65.7567Z" fill="url(#paint18_linear)"/>
<path d="M90.3671 65.598L91.6065 72.0641H90.2319L90.0291 70.9151L87.9107 70.8024L87.415 71.9064H86.1079L89.06 65.6656L90.3671 65.598ZM88.4741 69.4957H89.8262L89.4657 67.2427L88.4741 69.4957Z" fill="url(#paint19_linear)"/>
<path d="M101.39 66.184L101.21 67.5584L99.7449 67.4682L99.0914 72.4474L97.8069 72.3798L98.4604 67.4007L96.9956 67.3331L97.1759 65.9587L101.39 66.184Z" fill="url(#paint20_linear)"/>
<path d="M56.0004 185.956C61.0934 186.227 64.5413 191.791 63.685 198.368C62.8286 204.946 57.961 210.082 52.8455 209.834C47.73 209.586 44.3046 204 45.161 197.4C46.0173 190.799 50.9075 185.686 56.0004 185.956ZM52.9582 208.933C57.6906 209.181 62.1751 204.428 62.9864 198.346C63.7977 192.264 60.5976 187.083 55.8652 186.88C51.1328 186.677 46.6708 191.385 45.8821 197.445C45.0933 203.504 48.2483 208.708 52.9582 208.933Z" fill="white"/>
<path d="M56.2264 184.266C62.0405 184.581 65.9842 190.911 64.9926 198.435C64.0011 205.958 58.4574 211.815 52.6207 211.5C46.7841 211.184 42.8629 204.854 43.8545 197.331C44.8461 189.807 50.3898 183.973 56.2264 184.266ZM52.8461 209.833C57.9616 210.08 62.8067 204.967 63.6856 198.367C64.5645 191.767 61.094 186.225 56.001 185.955C50.9081 185.685 46.0404 190.821 45.1616 197.398C44.2827 203.976 47.7531 209.562 52.8461 209.833Z" fill="url(#paint21_linear)"/>
<path d="M55.8666 186.811C60.5991 187.036 63.7765 192.194 62.9878 198.276C62.1991 204.358 57.692 209.111 52.9596 208.864C48.2272 208.616 45.0722 203.457 45.8835 197.375C46.6948 191.293 51.1568 186.63 55.8666 186.811Z" fill="url(#paint22_linear)"/>
<path d="M66.8225 194.041C66.4281 191.022 64.8968 188.267 62.5407 186.338C61.1009 185.367 59.4598 184.736 57.7407 184.49C58.8023 184.752 59.7992 185.227 60.6703 185.887C62.0715 187.05 63.201 188.506 63.9796 190.152C64.7582 191.798 65.167 193.595 65.1774 195.416C65.2349 196.928 65.0986 198.442 64.7717 199.921C64.353 202.205 63.4163 204.364 62.0335 206.23C60.6506 208.097 58.8584 209.622 56.7943 210.688C55.0535 211.493 53.0912 211.683 51.228 211.229C53.0985 211.702 53.1435 211.724 53.4816 211.769C54.7514 212.027 56.064 211.98 57.3126 211.634C63.983 209.855 67.9492 201.205 66.8225 194.041Z" fill="url(#paint23_linear)"/>
<path d="M58.6627 193.119C58.8943 193.141 59.1161 193.223 59.3059 193.357C59.4957 193.492 59.6469 193.674 59.7444 193.885C59.9587 194.354 60.0239 194.878 59.9312 195.386C59.8386 195.893 59.5924 196.36 59.2261 196.724L52.6008 202.897C52.4604 203.041 52.2921 203.156 52.1061 203.233C51.9202 203.31 51.7205 203.349 51.519 203.347C51.2994 203.335 51.0866 203.266 50.9012 203.148C50.7157 203.029 50.5637 202.865 50.4599 202.671L48.2063 198.977C47.9713 198.52 47.8841 198.001 47.9568 197.493C48.0295 196.984 48.2584 196.511 48.612 196.138C48.7574 195.971 48.9377 195.838 49.1402 195.748C49.3427 195.659 49.5625 195.615 49.7838 195.62C49.9996 195.636 50.2077 195.706 50.3889 195.824C50.5702 195.943 50.7186 196.105 50.8204 196.295L52.1726 198.548L57.5134 193.569C57.6633 193.419 57.8429 193.301 58.0407 193.223C58.2386 193.146 58.4504 193.11 58.6627 193.119Z" fill="white"/>
<defs>
<linearGradient id="paint0_linear" x1="65.1414" y1="229.949" x2="65.5873" y2="238.733" gradientUnits="userSpaceOnUse">
<stop stop-color="#990094"/>
<stop offset="0.659327" stop-color="#61015E"/>
</linearGradient>
<linearGradient id="paint1_linear" x1="27.3183" y1="45.4375" x2="61.3921" y2="110.977" gradientUnits="userSpaceOnUse">
<stop stop-color="white"/>
<stop offset="1" stop-color="#E4E4E4"/>
</linearGradient>
<linearGradient id="paint2_linear" x1="85.7527" y1="7.3245" x2="85.7527" y2="23.4756" gradientUnits="userSpaceOnUse">
<stop stop-color="#282828"/>
<stop offset="0.53" stop-color="#D6D6D6"/>
<stop offset="1" stop-color="#262626"/>
</linearGradient>
<linearGradient id="paint3_linear" x1="2642.23" y1="622.059" x2="2642.23" y2="806.145" gradientUnits="userSpaceOnUse">
<stop stop-color="#282828"/>
<stop offset="0.53" stop-color="#D6D6D6"/>
<stop offset="1" stop-color="#262626"/>
</linearGradient>
<linearGradient id="paint4_linear" x1="50.9081" y1="45.0318" x2="113.782" y2="52.1755" gradientUnits="userSpaceOnUse">
<stop stop-color="#797979"/>
<stop offset="0.28" stop-color="#D6D6D6"/>
<stop offset="0.55" stop-color="#707070"/>
<stop offset="0.77" stop-color="#CCCCCC"/>
<stop offset="1" stop-color="#6B6B6B"/>
</linearGradient>
<linearGradient id="paint5_linear" x1="12688" y1="2335.1" x2="14743.1" y2="1493.32" gradientUnits="userSpaceOnUse">
<stop stop-color="#797979"/>
<stop offset="0.28" stop-color="#D6D6D6"/>
<stop offset="0.55" stop-color="#707070"/>
<stop offset="0.77" stop-color="#CCCCCC"/>
<stop offset="1" stop-color="#6B6B6B"/>
</linearGradient>
<linearGradient id="paint6_linear" x1="2322.96" y1="1186.47" x2="2322.96" y2="1569.8" gradientUnits="userSpaceOnUse">
<stop stop-color="#282828"/>
<stop offset="0.53" stop-color="#D6D6D6"/>
<stop offset="1" stop-color="#262626"/>
</linearGradient>
<linearGradient id="paint7_linear" x1="72.477" y1="56.3541" x2="75.7984" y2="59.8161" gradientUnits="userSpaceOnUse">
<stop stop-color="#990094"/>
<stop offset="0.659327" stop-color="#61015E"/>
</linearGradient>
<linearGradient id="paint8_linear" x1="77.5917" y1="56.6109" x2="80.8643" y2="60.9098" gradientUnits="userSpaceOnUse">
<stop stop-color="#990094"/>
<stop offset="0.659327" stop-color="#61015E"/>
</linearGradient>
<linearGradient id="paint9_linear" x1="87.7425" y1="57.3314" x2="91.022" y2="60.6754" gradientUnits="userSpaceOnUse">
<stop stop-color="#990094"/>
<stop offset="0.659327" stop-color="#61015E"/>
</linearGradient>
<linearGradient id="paint10_linear" x1="82.6527" y1="57.0392" x2="85.9421" y2="60.7968" gradientUnits="userSpaceOnUse">
<stop stop-color="#990094"/>
<stop offset="0.659327" stop-color="#61015E"/>
</linearGradient>
<linearGradient id="paint11_linear" x1="92.3308" y1="57.4005" x2="95.6345" y2="60.406" gradientUnits="userSpaceOnUse">
<stop stop-color="#990094"/>
<stop offset="0.659327" stop-color="#61015E"/>
</linearGradient>
<linearGradient id="paint12_linear" x1="68.8252" y1="64.4012" x2="72.5232" y2="68.5002" gradientUnits="userSpaceOnUse">
<stop stop-color="#990094"/>
<stop offset="0.659327" stop-color="#61015E"/>
</linearGradient>
<linearGradient id="paint13_linear" x1="63.8204" y1="64.1567" x2="67.5994" y2="67.9322" gradientUnits="userSpaceOnUse">
<stop stop-color="#990094"/>
<stop offset="0.659327" stop-color="#61015E"/>
</linearGradient>
<linearGradient id="paint14_linear" x1="79.6525" y1="64.9456" x2="83.3121" y2="68.2756" gradientUnits="userSpaceOnUse">
<stop stop-color="#990094"/>
<stop offset="0.659327" stop-color="#61015E"/>
</linearGradient>
<linearGradient id="paint15_linear" x1="74.4044" y1="64.6749" x2="78.1145" y2="68.7559" gradientUnits="userSpaceOnUse">
<stop stop-color="#990094"/>
<stop offset="0.659327" stop-color="#61015E"/>
</linearGradient>
<linearGradient id="paint16_linear" x1="84.0615" y1="65.1708" x2="87.8834" y2="68.7659" gradientUnits="userSpaceOnUse">
<stop stop-color="#990094"/>
<stop offset="0.659327" stop-color="#61015E"/>
</linearGradient>
<linearGradient id="paint17_linear" x1="80.4769" y1="71.9962" x2="80.6809" y2="75.6872" gradientUnits="userSpaceOnUse">
<stop stop-color="#990094"/>
<stop offset="0.659327" stop-color="#61015E"/>
</linearGradient>
<linearGradient id="paint18_linear" x1="94.48" y1="65.7567" x2="98.2331" y2="69.4806" gradientUnits="userSpaceOnUse">
<stop stop-color="#990094"/>
<stop offset="0.659327" stop-color="#61015E"/>
</linearGradient>
<linearGradient id="paint19_linear" x1="88.8572" y1="65.598" x2="92.488" y2="69.7465" gradientUnits="userSpaceOnUse">
<stop stop-color="#990094"/>
<stop offset="0.659327" stop-color="#61015E"/>
</linearGradient>
<linearGradient id="paint20_linear" x1="99.1928" y1="65.9587" x2="102.852" y2="69.2888" gradientUnits="userSpaceOnUse">
<stop stop-color="#990094"/>
<stop offset="0.659327" stop-color="#61015E"/>
</linearGradient>
<linearGradient id="paint21_linear" x1="54.4232" y1="184.255" x2="69.8406" y2="200.553" gradientUnits="userSpaceOnUse">
<stop stop-color="#990094"/>
<stop offset="0.659327" stop-color="#61015E"/>
</linearGradient>
<linearGradient id="paint22_linear" x1="54.4321" y1="186.806" x2="66.9146" y2="199.993" gradientUnits="userSpaceOnUse">
<stop stop-color="#990094"/>
<stop offset="0.659327" stop-color="#61015E"/>
</linearGradient>
<linearGradient id="paint23_linear" x1="59.1204" y1="184.49" x2="74.1647" y2="196.117" gradientUnits="userSpaceOnUse">
<stop stop-color="#990094"/>
<stop offset="0.659327" stop-color="#61015E"/>
</linearGradient>
</defs>
</svg>
