<svg width="35" height="30" viewBox="0 0 35 30" fill="none" xmlns="http://www.w3.org/2000/svg">
<path d="M1.31945 14.3137L9.21958 17.2622L12.2774 27.0962C12.4731 27.726 13.2432 27.9588 13.7544 27.5409L18.1581 23.9509C18.6197 23.5748 19.2772 23.5561 19.7596 23.9063L27.7022 29.6728C28.2491 30.0703 29.0238 29.7706 29.161 29.1098L34.9794 1.12223C35.1291 0.400396 34.4198 -0.201776 33.7325 0.064053L1.3102 12.5716C0.510082 12.8802 0.517054 14.013 1.31945 14.3137ZM11.7846 15.6926L27.2244 6.18326C27.5019 6.01286 27.7874 6.38806 27.5491 6.60909L14.8068 18.4537C14.3589 18.8706 14.07 19.4285 13.9882 20.0341L13.5541 23.2508C13.4966 23.6803 12.8933 23.7229 12.7748 23.3073L11.1054 17.4416C10.9142 16.7725 11.1928 16.0579 11.7846 15.6926Z" fill="white"/>
</svg>
