<svg width="27" height="31" viewBox="0 0 27 31" fill="none" xmlns="http://www.w3.org/2000/svg">
<path d="M24.7172 7.71162C23.2486 7.38868 21.9201 6.60883 20.9223 5.48396C19.9245 4.3591 19.3086 2.94706 19.1632 1.45046V0.802246H14.0806V20.9411C14.0816 21.8347 13.8014 22.706 13.2798 23.4315C12.7581 24.157 12.0214 24.7 11.174 24.9836C10.3266 25.2671 9.41144 25.2769 8.55819 25.0114C7.70493 24.7459 6.95683 24.2187 6.41985 23.5045C5.93877 22.8722 5.64418 22.118 5.56941 21.3271C5.49463 20.5361 5.64264 19.7401 5.99671 19.0289C6.35078 18.3177 6.89677 17.7197 7.57295 17.3026C8.24913 16.8856 9.02852 16.666 9.82298 16.6688C10.2623 16.6663 10.6995 16.7308 11.1194 16.8603V11.704C10.6308 11.6435 10.1384 11.6189 9.64619 11.6304C7.83312 11.6788 6.07353 12.2549 4.58288 13.2881C3.09223 14.3213 1.93522 15.7668 1.25355 17.4476C0.57187 19.1283 0.395108 20.9714 0.744906 22.751C1.0947 24.5307 1.95588 26.1697 3.22298 27.4674C4.52159 28.7877 6.18339 29.6922 7.99721 30.0659C9.81104 30.4396 11.695 30.2656 13.4097 29.5662C15.1245 28.8667 16.5926 27.6732 17.6275 26.1375C18.6624 24.6017 19.2175 22.793 19.2221 20.9411V10.6286C21.272 12.0929 23.7301 12.8762 26.2493 12.8679V7.85894C25.7545 7.86098 25.2607 7.81161 24.7761 7.71162H24.7172Z" fill="#F7F7F7"/>
</svg>
