<svg width="36" height="28" viewBox="0 0 36 28" fill="none" xmlns="http://www.w3.org/2000/svg">
<path d="M35.1427 3.36866C33.8677 3.92794 32.5091 4.29866 31.0927 4.47866C32.5498 3.60866 33.6619 2.24151 34.1848 0.593658C32.8262 1.40366 31.3262 1.9758 29.7277 2.29509C28.4377 0.921515 26.5991 0.0708008 24.5934 0.0708008C20.7019 0.0708008 17.5691 3.22937 17.5691 7.10151C17.5691 7.65866 17.6162 8.19437 17.7319 8.70437C11.8884 8.41937 6.71765 5.61866 3.24408 1.35223C2.63765 2.40437 2.28193 3.60866 2.28193 4.90509C2.28193 7.33937 3.53551 9.49723 5.40408 10.7465C4.27479 10.7251 3.16693 10.3972 2.22836 9.8808C2.22836 9.90223 2.22836 9.93009 2.22836 9.95794C2.22836 13.3737 4.66479 16.2108 7.85979 16.8644C7.28765 17.0208 6.66408 17.0958 6.01693 17.0958C5.56693 17.0958 5.11265 17.0701 4.68622 16.9758C5.59693 19.7594 8.18122 21.8058 11.2541 21.8722C8.86265 23.7429 5.82622 24.8701 2.53908 24.8701C1.96265 24.8701 1.40979 24.8444 0.856934 24.7737C3.97051 26.7815 7.66051 27.9279 11.6398 27.9279C24.5741 27.9279 31.6455 17.2137 31.6455 7.92651C31.6455 7.6158 31.6348 7.3158 31.6198 7.01794C33.0148 6.02794 34.1869 4.79151 35.1427 3.36866Z" fill="white"/>
</svg>
