<svg width="1920" height="138" viewBox="0 0 1920 138" fill="none" xmlns="http://www.w3.org/2000/svg">
<path fill-rule="evenodd" clip-rule="evenodd" d="M857.514 71.6192C916.497 23.4117 1083.73 -44.512 1279.98 72.0974L1279.98 72.0964C1479.25 190.337 1649.69 121.393 1710.38 71.6223L1710.38 71.6195C1769.36 23.412 1936.59 -44.5122 2132.84 72.0974L2136.41 66.0796C1937.02 -52.3986 1766.44 16.588 1705.72 66.3822L1705.72 66.385C1646.74 114.593 1479.51 182.517 1283.26 65.9071L1283.26 65.9081C1083.99 -52.332 913.545 16.612 852.86 66.3822L852.863 66.3853C793.88 114.593 626.651 182.516 430.402 65.9071L430.401 65.9079C231.132 -52.3319 60.6842 16.612 0 66.3822L4.43905 71.7947C63.2304 23.5769 230.628 -44.6535 427.115 72.0974L427.115 72.0966C626.385 190.336 796.832 121.392 857.516 71.6223L857.514 71.6192Z" fill="url(#paint0_linear)"/>
<defs>
<linearGradient id="paint0_linear" x1="1068.21" y1="0.64502" x2="1068.21" y2="137.359" gradientUnits="userSpaceOnUse">
<stop stop-color="#9F19AB"/>
<stop offset="0.33125" stop-color="#61015E"/>
<stop offset="0.664583" stop-color="#61015E"/>
<stop offset="1" stop-color="#61015E" stop-opacity="0.55"/>
</linearGradient>
</defs>
</svg>
